<?xml version="1.0" encoding="utf-8" standalone="no"?>
<!DOCTYPE svg PUBLIC "-//W3C//DTD SVG 1.1//EN"
  "http://www.w3.org/Graphics/SVG/1.1/DTD/svg11.dtd">
<svg xmlns:xlink="http://www.w3.org/1999/xlink" width="576pt" height="432pt" viewBox="0 0 576 432" xmlns="http://www.w3.org/2000/svg" version="1.1">
 <metadata>
  <rdf:RDF xmlns:dc="http://purl.org/dc/elements/1.1/" xmlns:cc="http://creativecommons.org/ns#" xmlns:rdf="http://www.w3.org/1999/02/22-rdf-syntax-ns#">
   <cc:Work>
    <dc:type rdf:resource="http://purl.org/dc/dcmitype/StillImage"/>
    <dc:date>2023-08-07T07:51:54.881907</dc:date>
    <dc:format>image/svg+xml</dc:format>
    <dc:creator>
     <cc:Agent>
      <dc:title>Matplotlib v3.7.1, https://matplotlib.org/</dc:title>
     </cc:Agent>
    </dc:creator>
   </cc:Work>
  </rdf:RDF>
 </metadata>
 <defs>
  <style type="text/css">*{stroke-linejoin: round; stroke-linecap: butt}</style>
 </defs>
 <g id="figure_1">
  <g id="patch_1">
   <path d="M 0 432 
L 576 432 
L 576 0 
L 0 0 
z
" style="fill: #ffffff"/>
  </g>
  <g id="axes_1">
   <g id="patch_2">
    <path d="M 72 388.8 
L 518.4 388.8 
L 518.4 43.2 
L 72 43.2 
z
" style="fill: #ffffff"/>
   </g>
   <g id="line2d_1">
    <path d="M 72 388.8 
L 77.58 384.072689 
L 83.16 370.178553 
L 88.74 347.959159 
L 94.32 318.746411 
L 99.9 284.263454 
L 105.48 246.499027 
L 111.06 207.566626 
L 116.64 169.560759 
L 122.22 134.42229 
L 127.8 103.823368 
L 133.38 79.079943 
L 138.96 61.096817 
L 144.54 50.346838 
L 150.12 46.882647 
L 155.7 50.376677 
L 161.28 60.183077 
L 166.86 75.414073 
L 172.44 95.022965 
L 178.02 117.886457 
L 183.6 142.880095 
L 189.18 168.942161 
L 194.76 195.123068 
L 200.34 220.619022 
L 205.92 244.790266 
L 211.5 267.165426 
L 217.08 287.434335 
L 222.66 305.432197 
L 228.24 321.118023 
L 233.82 334.550141 
L 239.4 345.861164 
L 244.98 355.234294 
L 250.56 362.882298 
L 256.14 369.029938 
L 261.72 373.900177 
L 267.3 377.704114 
L 272.88 380.634307 
L 278.46 382.861003 
L 284.04 384.530688 
L 289.62 385.766384 
L 295.2 386.669157 
L 300.78 387.320351 
L 306.36 387.784199 
L 311.94 388.110514 
L 317.52 388.337265 
L 323.1 388.492921 
L 328.68 388.59849 
L 334.26 388.669234 
L 339.84 388.716082 
L 345.42 388.74674 
L 351 388.766569 
L 356.58 388.779246 
L 362.16 388.787257 
L 367.74 388.792261 
L 373.32 388.795351 
L 378.9 388.797238 
L 384.48 388.798376 
L 390.06 388.799056 
L 395.64 388.799457 
L 401.22 388.799691 
L 406.8 388.799826 
L 412.38 388.799903 
L 417.96 388.799947 
L 423.54 388.799971 
L 429.12 388.799984 
L 434.7 388.799992 
L 440.28 388.799996 
L 445.86 388.799998 
L 451.44 388.799999 
L 457.02 388.799999 
L 462.6 388.8 
L 468.18 388.8 
L 473.76 388.8 
L 479.34 388.8 
L 484.92 388.8 
L 490.5 388.8 
L 496.08 388.8 
L 501.66 388.8 
L 507.24 388.8 
L 512.82 388.8 
" clip-path="url(#pff4e6fab13)" style="fill: none; stroke: #0000ff; stroke-linecap: square"/>
   </g>
   <g id="line2d_2">
    <path d="M 72 388.8 
L 77.58 386.753515 
L 83.16 380.685486 
L 88.74 370.807089 
L 94.32 357.460079 
L 99.9 341.102075 
L 105.48 322.287065 
L 111.06 301.642174 
L 116.64 279.841892 
L 122.22 257.581086 
L 127.8 235.548114 
L 133.38 214.399319 
L 138.96 194.73606 
L 144.54 177.085222 
L 150.12 161.883944 
L 155.7 149.469015 
L 161.28 140.071129 
L 166.86 133.813922 
L 172.44 130.717475 
L 178.02 130.705753 
L 183.6 133.617308 
L 189.18 139.218447 
L 194.76 147.218043 
L 200.34 157.283145 
L 205.92 169.054594 
L 211.5 182.161954 
L 217.08 196.23716 
L 222.66 210.926438 
L 228.24 225.900185 
L 233.82 240.860635 
L 239.4 255.547288 
L 244.98 269.740159 
L 250.56 283.261042 
L 256.14 295.973019 
L 261.72 307.778505 
L 267.3 318.616156 
L 272.88 328.456948 
L 278.46 337.299731 
L 284.04 345.166546 
L 289.62 352.097932 
L 295.2 358.148426 
L 300.78 363.382398 
L 306.36 367.870345 
L 311.94 371.685682 
L 317.52 374.90208 
L 323.1 377.591337 
L 328.68 379.821757 
L 334.26 381.656996 
L 339.84 383.155316 
L 345.42 384.369181 
L 351 385.345152 
L 356.58 386.123982 
L 362.16 386.740899 
L 367.74 387.225989 
L 373.32 387.604661 
L 378.9 387.898141 
L 384.48 388.123976 
L 390.06 388.296533 
L 395.64 388.427458 
L 401.22 388.526106 
L 406.8 388.59992 
L 412.38 388.654773 
L 417.96 388.695258 
L 423.54 388.724937 
L 429.12 388.746546 
L 434.7 388.762175 
L 440.28 388.773402 
L 445.86 388.781415 
L 451.44 388.787095 
L 457.02 388.791095 
L 462.6 388.793894 
L 468.18 388.795839 
L 473.76 388.797182 
L 479.34 388.798104 
L 484.92 388.798732 
L 490.5 388.799157 
L 496.08 388.799443 
L 501.66 388.799634 
L 507.24 388.799761 
L 512.82 388.799845 
" clip-path="url(#pff4e6fab13)" style="fill: none; stroke: #008000; stroke-linecap: square"/>
   </g>
   <g id="line2d_3">
    <path d="M 72 388.8 
L 77.58 387.6004 
L 83.16 384.030949 
L 88.74 378.178789 
L 94.32 370.186211 
L 99.9 360.246332 
L 105.48 348.597293 
L 111.06 335.515172 
L 116.64 321.305878 
L 122.22 306.296327 
L 127.8 290.825208 
L 133.38 275.233667 
L 138.96 259.856217 
L 144.54 245.012179 
L 150.12 230.997911 
L 155.7 218.080051 
L 161.28 206.489955 
L 166.86 196.419455 
L 172.44 188.017993 
L 178.02 181.391163 
L 183.6 176.600617 
L 189.18 173.665241 
L 194.76 172.56349 
L 200.34 173.236711 
L 205.92 175.593286 
L 211.5 179.513375 
L 217.08 184.854083 
L 222.66 191.454827 
L 228.24 199.142727 
L 233.82 207.737842 
L 239.4 217.0581 
L 244.98 226.923802 
L 250.56 237.161592 
L 256.14 247.607837 
L 261.72 258.111373 
L 267.3 268.535597 
L 272.88 278.75993 
L 278.46 288.680666 
L 284.04 298.211276 
L 289.62 307.282209 
L 295.2 315.840271 
L 300.78 323.847663 
L 306.36 331.28074 
L 311.94 338.128582 
L 317.52 344.391436 
L 323.1 350.0791 
L 328.68 355.209311 
L 334.26 359.80617 
L 339.84 363.898656 
L 345.42 367.519262 
L 351 370.702751 
L 356.58 373.48508 
L 362.16 375.902466 
L 367.74 377.99061 
L 373.32 379.784077 
L 378.9 381.315806 
L 384.48 382.616754 
L 390.06 383.715657 
L 395.64 384.638887 
L 401.22 385.41039 
L 406.8 386.051699 
L 412.38 386.582002 
L 417.96 387.018243 
L 423.54 387.375266 
L 429.12 387.665972 
L 434.7 387.901485 
L 440.28 388.091328 
L 445.86 388.243597 
L 451.44 388.365125 
L 457.02 388.461643 
L 462.6 388.537924 
L 468.18 388.597919 
L 473.76 388.644877 
L 479.34 388.681456 
L 484.92 388.709812 
L 490.5 388.731691 
L 496.08 388.748491 
L 501.66 388.761332 
L 507.24 388.771099 
L 512.82 388.778495 
" clip-path="url(#pff4e6fab13)" style="fill: none; stroke: #ff0000; stroke-linecap: square"/>
   </g>
   <g id="line2d_4">
    <path d="M 72 388.8 
L 77.58 387.990296 
L 83.16 385.576433 
L 88.74 381.603795 
L 94.32 376.146843 
L 99.9 369.307365 
L 105.48 361.212119 
L 111.06 352.009905 
L 116.64 341.86817 
L 122.22 330.969239 
L 127.8 319.506268 
L 133.38 307.67904 
L 138.96 295.689716 
L 144.54 283.738644 
L 150.12 272.020342 
L 155.7 260.71975 
L 161.28 250.008833 
L 166.86 240.043617 
L 172.44 230.961708 
L 178.02 222.880339 
L 183.6 215.894974 
L 189.18 210.078465 
L 194.76 205.480773 
L 200.34 202.129204 
L 205.92 200.02915 
L 211.5 199.16526 
L 217.08 199.503012 
L 222.66 200.990589 
L 228.24 203.561015 
L 233.82 207.134473 
L 239.4 211.620722 
L 244.98 216.921567 
L 250.56 222.933292 
L 256.14 229.549021 
L 261.72 236.660943 
L 267.3 244.162362 
L 272.88 251.949538 
L 278.46 259.923289 
L 284.04 267.990355 
L 289.62 276.064489 
L 295.2 284.067298 
L 300.78 291.928834 
L 306.36 299.587938 
L 311.94 306.992375 
L 317.52 314.098763 
L 323.1 320.872329 
L 328.68 327.286519 
L 334.26 333.322485 
L 339.84 338.968485 
L 345.42 344.219207 
L 351 349.07505 
L 356.58 353.541397 
L 362.16 357.627866 
L 367.74 361.347597 
L 373.32 364.716554 
L 378.9 367.752881 
L 384.48 370.476299 
L 390.06 372.907567 
L 395.64 375.067996 
L 401.22 376.979036 
L 406.8 378.661914 
L 412.38 380.137336 
L 417.96 381.425252 
L 423.54 382.544665 
L 429.12 383.513493 
L 434.7 384.348476 
L 440.28 385.06512 
L 445.86 385.67767 
L 451.44 386.199115 
L 457.02 386.641215 
L 462.6 387.014545 
L 468.18 387.328553 
L 473.76 387.591625 
L 479.34 387.811162 
L 484.92 387.993658 
L 490.5 388.144778 
L 496.08 388.269437 
L 501.66 388.371877 
L 507.24 388.45574 
L 512.82 388.524135 
" clip-path="url(#pff4e6fab13)" style="fill: none; stroke: #00bfbf; stroke-linecap: square"/>
   </g>
   <g id="line2d_5">
    <path d="M 72 388.8 
L 77.58 388.206816 
L 83.16 386.436344 
L 88.74 383.515652 
L 94.32 379.489277 
L 99.9 374.418378 
L 105.48 368.379579 
L 111.06 361.463529 
L 116.64 353.773206 
L 122.22 345.422016 
L 127.8 336.531727 
L 133.38 327.230277 
L 138.96 317.649513 
L 144.54 307.922911 
L 150.12 298.183313 
L 155.7 288.560752 
L 161.28 279.180379 
L 166.86 270.160558 
L 172.44 261.611145 
L 178.02 253.63199 
L 183.6 246.311684 
L 189.18 239.726561 
L 194.76 233.939971 
L 200.34 229.001826 
L 205.92 224.948408 
L 211.5 221.802445 
L 217.08 219.573419 
L 222.66 218.258109 
L 228.24 217.841324 
L 233.82 218.296817 
L 239.4 219.588339 
L 244.98 221.670803 
L 250.56 224.491539 
L 256.14 227.991589 
L 261.72 232.107036 
L 267.3 236.770312 
L 272.88 241.911483 
L 278.46 247.459476 
L 284.04 253.343229 
L 289.62 259.492745 
L 295.2 265.840047 
L 300.78 272.320012 
L 306.36 278.871081 
L 311.94 285.43585 
L 317.52 291.961534 
L 323.1 298.400304 
L 328.68 304.709511 
L 334.26 310.851803 
L 339.84 316.795133 
L 345.42 322.512685 
L 351 327.982713 
L 356.58 333.188318 
L 362.16 338.117168 
L 367.74 342.761166 
L 373.32 347.116098 
L 378.9 351.18125 
L 384.48 354.959011 
L 390.06 358.45448 
L 395.64 361.67507 
L 401.22 364.630131 
L 406.8 367.330582 
L 412.38 369.788568 
L 417.96 372.017147 
L 423.54 374.029995 
L 429.12 375.841149 
L 434.7 377.464775 
L 440.28 378.914969 
L 445.86 380.205583 
L 451.44 381.350088 
L 457.02 382.361453 
L 462.6 383.252057 
L 468.18 384.033619 
L 473.76 384.717154 
L 479.34 385.312938 
L 484.92 385.830502 
L 490.5 386.278623 
L 496.08 386.665344 
L 501.66 386.997988 
L 507.24 387.283192 
L 512.82 387.526935 
" clip-path="url(#pff4e6fab13)" style="fill: none; stroke: #bf00bf; stroke-linecap: square"/>
   </g>
   <g id="line2d_6">
    <path d="M 72 388.8 
L 77.58 388.341513 
L 83.16 386.971966 
L 88.74 384.708998 
L 94.32 381.581694 
L 99.9 377.63012 
L 105.48 372.904677 
L 111.06 367.465304 
L 116.64 361.380532 
L 122.22 354.726409 
L 127.8 347.585325 
L 133.38 340.044749 
L 138.96 332.195908 
L 144.54 324.132436 
L 150.12 315.949005 
L 155.7 307.739979 
L 161.28 299.598102 
L 166.86 291.613248 
L 172.44 283.871254 
L 178.02 276.452844 
L 183.6 269.432682 
L 189.18 262.878539 
L 194.76 256.850605 
L 200.34 251.400944 
L 205.92 246.573097 
L 211.5 242.401834 
L 217.08 238.913051 
L 222.66 236.123809 
L 228.24 234.042512 
L 233.82 232.669201 
L 239.4 231.995966 
L 244.98 232.007458 
L 250.56 232.681482 
L 256.14 233.989666 
L 261.72 235.898176 
L 267.3 238.368481 
L 272.88 241.35813 
L 278.46 244.821544 
L 284.04 248.710802 
L 289.62 252.976406 
L 295.2 257.568017 
L 300.78 262.43515 
L 306.36 267.527823 
L 311.94 272.797144 
L 317.52 278.195841 
L 323.1 283.678724 
L 328.68 289.20308 
L 334.26 294.728999 
L 339.84 300.21963 
L 345.42 305.641376 
L 351 310.964016 
L 356.58 316.160776 
L 362.16 321.208338 
L 367.74 326.086806 
L 373.32 330.779615 
L 378.9 335.273416 
L 384.48 339.557916 
L 390.06 343.625697 
L 395.64 347.472011 
L 401.22 351.094561 
L 406.8 354.49327 
L 412.38 357.670045 
L 417.96 360.628539 
L 423.54 363.37392 
L 429.12 365.912638 
L 434.7 368.252209 
L 440.28 370.401006 
L 445.86 372.368063 
L 451.44 374.162898 
L 457.02 375.795349 
L 462.6 377.275422 
L 468.18 378.613166 
L 473.76 379.818554 
L 479.34 380.901387 
L 484.92 381.871206 
L 490.5 382.737232 
L 496.08 383.508303 
L 501.66 384.192835 
L 507.24 384.798792 
L 512.82 385.333662 
" clip-path="url(#pff4e6fab13)" style="fill: none; stroke: #bfbf00; stroke-linecap: square"/>
   </g>
   <g id="patch_3">
    <path d="M 72 388.8 
L 72 43.2 
" style="fill: none; stroke: #000000; stroke-linejoin: miter; stroke-linecap: square"/>
   </g>
   <g id="patch_4">
    <path d="M 518.4 388.8 
L 518.4 43.2 
" style="fill: none; stroke: #000000; stroke-linejoin: miter; stroke-linecap: square"/>
   </g>
   <g id="patch_5">
    <path d="M 72 388.8 
L 518.4 388.8 
" style="fill: none; stroke: #000000; stroke-linejoin: miter; stroke-linecap: square"/>
   </g>
   <g id="patch_6">
    <path d="M 72 43.2 
L 518.4 43.2 
" style="fill: none; stroke: #000000; stroke-linejoin: miter; stroke-linecap: square"/>
   </g>
   <g id="matplotlib.axis_1">
    <g id="xtick_1">
     <g id="line2d_7">
      <defs>
       <path id="m071abb9edc" d="M 0 0 
L 0 -4 
" style="stroke: #000000; stroke-width: 0.5"/>
      </defs>
      <g>
       <use xlink:href="#m071abb9edc" x="72" y="388.8" style="stroke: #000000; stroke-width: 0.5"/>
      </g>
     </g>
     <g id="line2d_8">
      <defs>
       <path id="m4d2015aa8f" d="M 0 0 
L 0 4 
" style="stroke: #000000; stroke-width: 0.5"/>
      </defs>
      <g>
       <use xlink:href="#m4d2015aa8f" x="72" y="43.2" style="stroke: #000000; stroke-width: 0.5"/>
      </g>
     </g>
     <g id="text_1">
      <!-- 0 -->
      <g transform="translate(68.1825 401.918125) scale(0.12 -0.12)">
       <defs>
        <path id="DejaVuSans-30" d="M 2034 4250 
Q 1547 4250 1301 3770 
Q 1056 3291 1056 2328 
Q 1056 1369 1301 889 
Q 1547 409 2034 409 
Q 2525 409 2770 889 
Q 3016 1369 3016 2328 
Q 3016 3291 2770 3770 
Q 2525 4250 2034 4250 
z
M 2034 4750 
Q 2819 4750 3233 4129 
Q 3647 3509 3647 2328 
Q 3647 1150 3233 529 
Q 2819 -91 2034 -91 
Q 1250 -91 836 529 
Q 422 1150 422 2328 
Q 422 3509 836 4129 
Q 1250 4750 2034 4750 
z
" transform="scale(0.015625)"/>
       </defs>
       <use xlink:href="#DejaVuSans-30"/>
      </g>
     </g>
    </g>
    <g id="xtick_2">
     <g id="line2d_9">
      <g>
       <use xlink:href="#m071abb9edc" x="127.8" y="388.8" style="stroke: #000000; stroke-width: 0.5"/>
      </g>
     </g>
     <g id="line2d_10">
      <g>
       <use xlink:href="#m4d2015aa8f" x="127.8" y="43.2" style="stroke: #000000; stroke-width: 0.5"/>
      </g>
     </g>
     <g id="text_2">
      <!-- 100 -->
      <g transform="translate(116.3475 401.918125) scale(0.12 -0.12)">
       <defs>
        <path id="DejaVuSans-31" d="M 794 531 
L 1825 531 
L 1825 4091 
L 703 3866 
L 703 4441 
L 1819 4666 
L 2450 4666 
L 2450 531 
L 3481 531 
L 3481 0 
L 794 0 
L 794 531 
z
" transform="scale(0.015625)"/>
       </defs>
       <use xlink:href="#DejaVuSans-31"/>
       <use xlink:href="#DejaVuSans-30" x="63.623047"/>
       <use xlink:href="#DejaVuSans-30" x="127.246094"/>
      </g>
     </g>
    </g>
    <g id="xtick_3">
     <g id="line2d_11">
      <g>
       <use xlink:href="#m071abb9edc" x="183.6" y="388.8" style="stroke: #000000; stroke-width: 0.5"/>
      </g>
     </g>
     <g id="line2d_12">
      <g>
       <use xlink:href="#m4d2015aa8f" x="183.6" y="43.2" style="stroke: #000000; stroke-width: 0.5"/>
      </g>
     </g>
     <g id="text_3">
      <!-- 200 -->
      <g transform="translate(172.1475 401.918125) scale(0.12 -0.12)">
       <defs>
        <path id="DejaVuSans-32" d="M 1228 531 
L 3431 531 
L 3431 0 
L 469 0 
L 469 531 
Q 828 903 1448 1529 
Q 2069 2156 2228 2338 
Q 2531 2678 2651 2914 
Q 2772 3150 2772 3378 
Q 2772 3750 2511 3984 
Q 2250 4219 1831 4219 
Q 1534 4219 1204 4116 
Q 875 4013 500 3803 
L 500 4441 
Q 881 4594 1212 4672 
Q 1544 4750 1819 4750 
Q 2544 4750 2975 4387 
Q 3406 4025 3406 3419 
Q 3406 3131 3298 2873 
Q 3191 2616 2906 2266 
Q 2828 2175 2409 1742 
Q 1991 1309 1228 531 
z
" transform="scale(0.015625)"/>
       </defs>
       <use xlink:href="#DejaVuSans-32"/>
       <use xlink:href="#DejaVuSans-30" x="63.623047"/>
       <use xlink:href="#DejaVuSans-30" x="127.246094"/>
      </g>
     </g>
    </g>
    <g id="xtick_4">
     <g id="line2d_13">
      <g>
       <use xlink:href="#m071abb9edc" x="239.4" y="388.8" style="stroke: #000000; stroke-width: 0.5"/>
      </g>
     </g>
     <g id="line2d_14">
      <g>
       <use xlink:href="#m4d2015aa8f" x="239.4" y="43.2" style="stroke: #000000; stroke-width: 0.5"/>
      </g>
     </g>
     <g id="text_4">
      <!-- 300 -->
      <g transform="translate(227.9475 401.918125) scale(0.12 -0.12)">
       <defs>
        <path id="DejaVuSans-33" d="M 2597 2516 
Q 3050 2419 3304 2112 
Q 3559 1806 3559 1356 
Q 3559 666 3084 287 
Q 2609 -91 1734 -91 
Q 1441 -91 1130 -33 
Q 819 25 488 141 
L 488 750 
Q 750 597 1062 519 
Q 1375 441 1716 441 
Q 2309 441 2620 675 
Q 2931 909 2931 1356 
Q 2931 1769 2642 2001 
Q 2353 2234 1838 2234 
L 1294 2234 
L 1294 2753 
L 1863 2753 
Q 2328 2753 2575 2939 
Q 2822 3125 2822 3475 
Q 2822 3834 2567 4026 
Q 2313 4219 1838 4219 
Q 1578 4219 1281 4162 
Q 984 4106 628 3988 
L 628 4550 
Q 988 4650 1302 4700 
Q 1616 4750 1894 4750 
Q 2613 4750 3031 4423 
Q 3450 4097 3450 3541 
Q 3450 3153 3228 2886 
Q 3006 2619 2597 2516 
z
" transform="scale(0.015625)"/>
       </defs>
       <use xlink:href="#DejaVuSans-33"/>
       <use xlink:href="#DejaVuSans-30" x="63.623047"/>
       <use xlink:href="#DejaVuSans-30" x="127.246094"/>
      </g>
     </g>
    </g>
    <g id="xtick_5">
     <g id="line2d_15">
      <g>
       <use xlink:href="#m071abb9edc" x="295.2" y="388.8" style="stroke: #000000; stroke-width: 0.5"/>
      </g>
     </g>
     <g id="line2d_16">
      <g>
       <use xlink:href="#m4d2015aa8f" x="295.2" y="43.2" style="stroke: #000000; stroke-width: 0.5"/>
      </g>
     </g>
     <g id="text_5">
      <!-- 400 -->
      <g transform="translate(283.7475 401.918125) scale(0.12 -0.12)">
       <defs>
        <path id="DejaVuSans-34" d="M 2419 4116 
L 825 1625 
L 2419 1625 
L 2419 4116 
z
M 2253 4666 
L 3047 4666 
L 3047 1625 
L 3713 1625 
L 3713 1100 
L 3047 1100 
L 3047 0 
L 2419 0 
L 2419 1100 
L 313 1100 
L 313 1709 
L 2253 4666 
z
" transform="scale(0.015625)"/>
       </defs>
       <use xlink:href="#DejaVuSans-34"/>
       <use xlink:href="#DejaVuSans-30" x="63.623047"/>
       <use xlink:href="#DejaVuSans-30" x="127.246094"/>
      </g>
     </g>
    </g>
    <g id="xtick_6">
     <g id="line2d_17">
      <g>
       <use xlink:href="#m071abb9edc" x="351" y="388.8" style="stroke: #000000; stroke-width: 0.5"/>
      </g>
     </g>
     <g id="line2d_18">
      <g>
       <use xlink:href="#m4d2015aa8f" x="351" y="43.2" style="stroke: #000000; stroke-width: 0.5"/>
      </g>
     </g>
     <g id="text_6">
      <!-- 500 -->
      <g transform="translate(339.5475 401.918125) scale(0.12 -0.12)">
       <defs>
        <path id="DejaVuSans-35" d="M 691 4666 
L 3169 4666 
L 3169 4134 
L 1269 4134 
L 1269 2991 
Q 1406 3038 1543 3061 
Q 1681 3084 1819 3084 
Q 2600 3084 3056 2656 
Q 3513 2228 3513 1497 
Q 3513 744 3044 326 
Q 2575 -91 1722 -91 
Q 1428 -91 1123 -41 
Q 819 9 494 109 
L 494 744 
Q 775 591 1075 516 
Q 1375 441 1709 441 
Q 2250 441 2565 725 
Q 2881 1009 2881 1497 
Q 2881 1984 2565 2268 
Q 2250 2553 1709 2553 
Q 1456 2553 1204 2497 
Q 953 2441 691 2322 
L 691 4666 
z
" transform="scale(0.015625)"/>
       </defs>
       <use xlink:href="#DejaVuSans-35"/>
       <use xlink:href="#DejaVuSans-30" x="63.623047"/>
       <use xlink:href="#DejaVuSans-30" x="127.246094"/>
      </g>
     </g>
    </g>
    <g id="xtick_7">
     <g id="line2d_19">
      <g>
       <use xlink:href="#m071abb9edc" x="406.8" y="388.8" style="stroke: #000000; stroke-width: 0.5"/>
      </g>
     </g>
     <g id="line2d_20">
      <g>
       <use xlink:href="#m4d2015aa8f" x="406.8" y="43.2" style="stroke: #000000; stroke-width: 0.5"/>
      </g>
     </g>
     <g id="text_7">
      <!-- 600 -->
      <g transform="translate(395.3475 401.918125) scale(0.12 -0.12)">
       <defs>
        <path id="DejaVuSans-36" d="M 2113 2584 
Q 1688 2584 1439 2293 
Q 1191 2003 1191 1497 
Q 1191 994 1439 701 
Q 1688 409 2113 409 
Q 2538 409 2786 701 
Q 3034 994 3034 1497 
Q 3034 2003 2786 2293 
Q 2538 2584 2113 2584 
z
M 3366 4563 
L 3366 3988 
Q 3128 4100 2886 4159 
Q 2644 4219 2406 4219 
Q 1781 4219 1451 3797 
Q 1122 3375 1075 2522 
Q 1259 2794 1537 2939 
Q 1816 3084 2150 3084 
Q 2853 3084 3261 2657 
Q 3669 2231 3669 1497 
Q 3669 778 3244 343 
Q 2819 -91 2113 -91 
Q 1303 -91 875 529 
Q 447 1150 447 2328 
Q 447 3434 972 4092 
Q 1497 4750 2381 4750 
Q 2619 4750 2861 4703 
Q 3103 4656 3366 4563 
z
" transform="scale(0.015625)"/>
       </defs>
       <use xlink:href="#DejaVuSans-36"/>
       <use xlink:href="#DejaVuSans-30" x="63.623047"/>
       <use xlink:href="#DejaVuSans-30" x="127.246094"/>
      </g>
     </g>
    </g>
    <g id="xtick_8">
     <g id="line2d_21">
      <g>
       <use xlink:href="#m071abb9edc" x="462.6" y="388.8" style="stroke: #000000; stroke-width: 0.5"/>
      </g>
     </g>
     <g id="line2d_22">
      <g>
       <use xlink:href="#m4d2015aa8f" x="462.6" y="43.2" style="stroke: #000000; stroke-width: 0.5"/>
      </g>
     </g>
     <g id="text_8">
      <!-- 700 -->
      <g transform="translate(451.1475 401.918125) scale(0.12 -0.12)">
       <defs>
        <path id="DejaVuSans-37" d="M 525 4666 
L 3525 4666 
L 3525 4397 
L 1831 0 
L 1172 0 
L 2766 4134 
L 525 4134 
L 525 4666 
z
" transform="scale(0.015625)"/>
       </defs>
       <use xlink:href="#DejaVuSans-37"/>
       <use xlink:href="#DejaVuSans-30" x="63.623047"/>
       <use xlink:href="#DejaVuSans-30" x="127.246094"/>
      </g>
     </g>
    </g>
    <g id="xtick_9">
     <g id="line2d_23">
      <g>
       <use xlink:href="#m071abb9edc" x="518.4" y="388.8" style="stroke: #000000; stroke-width: 0.5"/>
      </g>
     </g>
     <g id="line2d_24">
      <g>
       <use xlink:href="#m4d2015aa8f" x="518.4" y="43.2" style="stroke: #000000; stroke-width: 0.5"/>
      </g>
     </g>
     <g id="text_9">
      <!-- 800 -->
      <g transform="translate(506.9475 401.918125) scale(0.12 -0.12)">
       <defs>
        <path id="DejaVuSans-38" d="M 2034 2216 
Q 1584 2216 1326 1975 
Q 1069 1734 1069 1313 
Q 1069 891 1326 650 
Q 1584 409 2034 409 
Q 2484 409 2743 651 
Q 3003 894 3003 1313 
Q 3003 1734 2745 1975 
Q 2488 2216 2034 2216 
z
M 1403 2484 
Q 997 2584 770 2862 
Q 544 3141 544 3541 
Q 544 4100 942 4425 
Q 1341 4750 2034 4750 
Q 2731 4750 3128 4425 
Q 3525 4100 3525 3541 
Q 3525 3141 3298 2862 
Q 3072 2584 2669 2484 
Q 3125 2378 3379 2068 
Q 3634 1759 3634 1313 
Q 3634 634 3220 271 
Q 2806 -91 2034 -91 
Q 1263 -91 848 271 
Q 434 634 434 1313 
Q 434 1759 690 2068 
Q 947 2378 1403 2484 
z
M 1172 3481 
Q 1172 3119 1398 2916 
Q 1625 2713 2034 2713 
Q 2441 2713 2670 2916 
Q 2900 3119 2900 3481 
Q 2900 3844 2670 4047 
Q 2441 4250 2034 4250 
Q 1625 4250 1398 4047 
Q 1172 3844 1172 3481 
z
" transform="scale(0.015625)"/>
       </defs>
       <use xlink:href="#DejaVuSans-38"/>
       <use xlink:href="#DejaVuSans-30" x="63.623047"/>
       <use xlink:href="#DejaVuSans-30" x="127.246094"/>
      </g>
     </g>
    </g>
    <g id="text_10">
     <!-- Speed -->
     <g transform="translate(276.389062 418.531875) scale(0.12 -0.12)">
      <defs>
       <path id="DejaVuSans-53" d="M 3425 4513 
L 3425 3897 
Q 3066 4069 2747 4153 
Q 2428 4238 2131 4238 
Q 1616 4238 1336 4038 
Q 1056 3838 1056 3469 
Q 1056 3159 1242 3001 
Q 1428 2844 1947 2747 
L 2328 2669 
Q 3034 2534 3370 2195 
Q 3706 1856 3706 1288 
Q 3706 609 3251 259 
Q 2797 -91 1919 -91 
Q 1588 -91 1214 -16 
Q 841 59 441 206 
L 441 856 
Q 825 641 1194 531 
Q 1563 422 1919 422 
Q 2459 422 2753 634 
Q 3047 847 3047 1241 
Q 3047 1584 2836 1778 
Q 2625 1972 2144 2069 
L 1759 2144 
Q 1053 2284 737 2584 
Q 422 2884 422 3419 
Q 422 4038 858 4394 
Q 1294 4750 2059 4750 
Q 2388 4750 2728 4690 
Q 3069 4631 3425 4513 
z
" transform="scale(0.015625)"/>
       <path id="DejaVuSans-70" d="M 1159 525 
L 1159 -1331 
L 581 -1331 
L 581 3500 
L 1159 3500 
L 1159 2969 
Q 1341 3281 1617 3432 
Q 1894 3584 2278 3584 
Q 2916 3584 3314 3078 
Q 3713 2572 3713 1747 
Q 3713 922 3314 415 
Q 2916 -91 2278 -91 
Q 1894 -91 1617 61 
Q 1341 213 1159 525 
z
M 3116 1747 
Q 3116 2381 2855 2742 
Q 2594 3103 2138 3103 
Q 1681 3103 1420 2742 
Q 1159 2381 1159 1747 
Q 1159 1113 1420 752 
Q 1681 391 2138 391 
Q 2594 391 2855 752 
Q 3116 1113 3116 1747 
z
" transform="scale(0.015625)"/>
       <path id="DejaVuSans-65" d="M 3597 1894 
L 3597 1613 
L 953 1613 
Q 991 1019 1311 708 
Q 1631 397 2203 397 
Q 2534 397 2845 478 
Q 3156 559 3463 722 
L 3463 178 
Q 3153 47 2828 -22 
Q 2503 -91 2169 -91 
Q 1331 -91 842 396 
Q 353 884 353 1716 
Q 353 2575 817 3079 
Q 1281 3584 2069 3584 
Q 2775 3584 3186 3129 
Q 3597 2675 3597 1894 
z
M 3022 2063 
Q 3016 2534 2758 2815 
Q 2500 3097 2075 3097 
Q 1594 3097 1305 2825 
Q 1016 2553 972 2059 
L 3022 2063 
z
" transform="scale(0.015625)"/>
       <path id="DejaVuSans-64" d="M 2906 2969 
L 2906 4863 
L 3481 4863 
L 3481 0 
L 2906 0 
L 2906 525 
Q 2725 213 2448 61 
Q 2172 -91 1784 -91 
Q 1150 -91 751 415 
Q 353 922 353 1747 
Q 353 2572 751 3078 
Q 1150 3584 1784 3584 
Q 2172 3584 2448 3432 
Q 2725 3281 2906 2969 
z
M 947 1747 
Q 947 1113 1208 752 
Q 1469 391 1925 391 
Q 2381 391 2643 752 
Q 2906 1113 2906 1747 
Q 2906 2381 2643 2742 
Q 2381 3103 1925 3103 
Q 1469 3103 1208 2742 
Q 947 2381 947 1747 
z
" transform="scale(0.015625)"/>
      </defs>
      <use xlink:href="#DejaVuSans-53"/>
      <use xlink:href="#DejaVuSans-70" x="63.476562"/>
      <use xlink:href="#DejaVuSans-65" x="126.953125"/>
      <use xlink:href="#DejaVuSans-65" x="188.476562"/>
      <use xlink:href="#DejaVuSans-64" x="250"/>
     </g>
    </g>
   </g>
   <g id="matplotlib.axis_2">
    <g id="ytick_1">
     <g id="line2d_25">
      <defs>
       <path id="m6e7c3d5126" d="M 0 0 
L 4 0 
" style="stroke: #000000; stroke-width: 0.5"/>
      </defs>
      <g>
       <use xlink:href="#m6e7c3d5126" x="72" y="388.8" style="stroke: #000000; stroke-width: 0.5"/>
      </g>
     </g>
     <g id="line2d_26">
      <defs>
       <path id="m0e001c3ebb" d="M 0 0 
L -4 0 
" style="stroke: #000000; stroke-width: 0.5"/>
      </defs>
      <g>
       <use xlink:href="#m0e001c3ebb" x="518.4" y="388.8" style="stroke: #000000; stroke-width: 0.5"/>
      </g>
     </g>
     <g id="text_11">
      <!-- 0.000 -->
      <g transform="translate(33.64625 392.11125) scale(0.12 -0.12)">
       <defs>
        <path id="DejaVuSans-2e" d="M 684 794 
L 1344 794 
L 1344 0 
L 684 0 
L 684 794 
z
" transform="scale(0.015625)"/>
       </defs>
       <use xlink:href="#DejaVuSans-30"/>
       <use xlink:href="#DejaVuSans-2e" x="63.623047"/>
       <use xlink:href="#DejaVuSans-30" x="95.410156"/>
       <use xlink:href="#DejaVuSans-30" x="159.033203"/>
       <use xlink:href="#DejaVuSans-30" x="222.65625"/>
      </g>
     </g>
    </g>
    <g id="ytick_2">
     <g id="line2d_27">
      <g>
       <use xlink:href="#m6e7c3d5126" x="72" y="331.2" style="stroke: #000000; stroke-width: 0.5"/>
      </g>
     </g>
     <g id="line2d_28">
      <g>
       <use xlink:href="#m0e001c3ebb" x="518.4" y="331.2" style="stroke: #000000; stroke-width: 0.5"/>
      </g>
     </g>
     <g id="text_12">
      <!-- 0.001 -->
      <g transform="translate(33.64625 334.51125) scale(0.12 -0.12)">
       <use xlink:href="#DejaVuSans-30"/>
       <use xlink:href="#DejaVuSans-2e" x="63.623047"/>
       <use xlink:href="#DejaVuSans-30" x="95.410156"/>
       <use xlink:href="#DejaVuSans-30" x="159.033203"/>
       <use xlink:href="#DejaVuSans-31" x="222.65625"/>
      </g>
     </g>
    </g>
    <g id="ytick_3">
     <g id="line2d_29">
      <g>
       <use xlink:href="#m6e7c3d5126" x="72" y="273.6" style="stroke: #000000; stroke-width: 0.5"/>
      </g>
     </g>
     <g id="line2d_30">
      <g>
       <use xlink:href="#m0e001c3ebb" x="518.4" y="273.6" style="stroke: #000000; stroke-width: 0.5"/>
      </g>
     </g>
     <g id="text_13">
      <!-- 0.002 -->
      <g transform="translate(33.64625 276.91125) scale(0.12 -0.12)">
       <use xlink:href="#DejaVuSans-30"/>
       <use xlink:href="#DejaVuSans-2e" x="63.623047"/>
       <use xlink:href="#DejaVuSans-30" x="95.410156"/>
       <use xlink:href="#DejaVuSans-30" x="159.033203"/>
       <use xlink:href="#DejaVuSans-32" x="222.65625"/>
      </g>
     </g>
    </g>
    <g id="ytick_4">
     <g id="line2d_31">
      <g>
       <use xlink:href="#m6e7c3d5126" x="72" y="216" style="stroke: #000000; stroke-width: 0.5"/>
      </g>
     </g>
     <g id="line2d_32">
      <g>
       <use xlink:href="#m0e001c3ebb" x="518.4" y="216" style="stroke: #000000; stroke-width: 0.5"/>
      </g>
     </g>
     <g id="text_14">
      <!-- 0.003 -->
      <g transform="translate(33.64625 219.31125) scale(0.12 -0.12)">
       <use xlink:href="#DejaVuSans-30"/>
       <use xlink:href="#DejaVuSans-2e" x="63.623047"/>
       <use xlink:href="#DejaVuSans-30" x="95.410156"/>
       <use xlink:href="#DejaVuSans-30" x="159.033203"/>
       <use xlink:href="#DejaVuSans-33" x="222.65625"/>
      </g>
     </g>
    </g>
    <g id="ytick_5">
     <g id="line2d_33">
      <g>
       <use xlink:href="#m6e7c3d5126" x="72" y="158.4" style="stroke: #000000; stroke-width: 0.5"/>
      </g>
     </g>
     <g id="line2d_34">
      <g>
       <use xlink:href="#m0e001c3ebb" x="518.4" y="158.4" style="stroke: #000000; stroke-width: 0.5"/>
      </g>
     </g>
     <g id="text_15">
      <!-- 0.004 -->
      <g transform="translate(33.64625 161.71125) scale(0.12 -0.12)">
       <use xlink:href="#DejaVuSans-30"/>
       <use xlink:href="#DejaVuSans-2e" x="63.623047"/>
       <use xlink:href="#DejaVuSans-30" x="95.410156"/>
       <use xlink:href="#DejaVuSans-30" x="159.033203"/>
       <use xlink:href="#DejaVuSans-34" x="222.65625"/>
      </g>
     </g>
    </g>
    <g id="ytick_6">
     <g id="line2d_35">
      <g>
       <use xlink:href="#m6e7c3d5126" x="72" y="100.8" style="stroke: #000000; stroke-width: 0.5"/>
      </g>
     </g>
     <g id="line2d_36">
      <g>
       <use xlink:href="#m0e001c3ebb" x="518.4" y="100.8" style="stroke: #000000; stroke-width: 0.5"/>
      </g>
     </g>
     <g id="text_16">
      <!-- 0.005 -->
      <g transform="translate(33.64625 104.11125) scale(0.12 -0.12)">
       <use xlink:href="#DejaVuSans-30"/>
       <use xlink:href="#DejaVuSans-2e" x="63.623047"/>
       <use xlink:href="#DejaVuSans-30" x="95.410156"/>
       <use xlink:href="#DejaVuSans-30" x="159.033203"/>
       <use xlink:href="#DejaVuSans-35" x="222.65625"/>
      </g>
     </g>
    </g>
    <g id="ytick_7">
     <g id="line2d_37">
      <g>
       <use xlink:href="#m6e7c3d5126" x="72" y="43.2" style="stroke: #000000; stroke-width: 0.5"/>
      </g>
     </g>
     <g id="line2d_38">
      <g>
       <use xlink:href="#m0e001c3ebb" x="518.4" y="43.2" style="stroke: #000000; stroke-width: 0.5"/>
      </g>
     </g>
     <g id="text_17">
      <!-- 0.006 -->
      <g transform="translate(33.64625 46.51125) scale(0.12 -0.12)">
       <use xlink:href="#DejaVuSans-30"/>
       <use xlink:href="#DejaVuSans-2e" x="63.623047"/>
       <use xlink:href="#DejaVuSans-30" x="95.410156"/>
       <use xlink:href="#DejaVuSans-30" x="159.033203"/>
       <use xlink:href="#DejaVuSans-36" x="222.65625"/>
      </g>
     </g>
    </g>
    <g id="text_18">
     <!-- Speed distribution -->
     <g transform="translate(26.150625 270.909375) rotate(-90) scale(0.12 -0.12)">
      <defs>
       <path id="DejaVuSans-20" transform="scale(0.015625)"/>
       <path id="DejaVuSans-69" d="M 603 3500 
L 1178 3500 
L 1178 0 
L 603 0 
L 603 3500 
z
M 603 4863 
L 1178 4863 
L 1178 4134 
L 603 4134 
L 603 4863 
z
" transform="scale(0.015625)"/>
       <path id="DejaVuSans-73" d="M 2834 3397 
L 2834 2853 
Q 2591 2978 2328 3040 
Q 2066 3103 1784 3103 
Q 1356 3103 1142 2972 
Q 928 2841 928 2578 
Q 928 2378 1081 2264 
Q 1234 2150 1697 2047 
L 1894 2003 
Q 2506 1872 2764 1633 
Q 3022 1394 3022 966 
Q 3022 478 2636 193 
Q 2250 -91 1575 -91 
Q 1294 -91 989 -36 
Q 684 19 347 128 
L 347 722 
Q 666 556 975 473 
Q 1284 391 1588 391 
Q 1994 391 2212 530 
Q 2431 669 2431 922 
Q 2431 1156 2273 1281 
Q 2116 1406 1581 1522 
L 1381 1569 
Q 847 1681 609 1914 
Q 372 2147 372 2553 
Q 372 3047 722 3315 
Q 1072 3584 1716 3584 
Q 2034 3584 2315 3537 
Q 2597 3491 2834 3397 
z
" transform="scale(0.015625)"/>
       <path id="DejaVuSans-74" d="M 1172 4494 
L 1172 3500 
L 2356 3500 
L 2356 3053 
L 1172 3053 
L 1172 1153 
Q 1172 725 1289 603 
Q 1406 481 1766 481 
L 2356 481 
L 2356 0 
L 1766 0 
Q 1100 0 847 248 
Q 594 497 594 1153 
L 594 3053 
L 172 3053 
L 172 3500 
L 594 3500 
L 594 4494 
L 1172 4494 
z
" transform="scale(0.015625)"/>
       <path id="DejaVuSans-72" d="M 2631 2963 
Q 2534 3019 2420 3045 
Q 2306 3072 2169 3072 
Q 1681 3072 1420 2755 
Q 1159 2438 1159 1844 
L 1159 0 
L 581 0 
L 581 3500 
L 1159 3500 
L 1159 2956 
Q 1341 3275 1631 3429 
Q 1922 3584 2338 3584 
Q 2397 3584 2469 3576 
Q 2541 3569 2628 3553 
L 2631 2963 
z
" transform="scale(0.015625)"/>
       <path id="DejaVuSans-62" d="M 3116 1747 
Q 3116 2381 2855 2742 
Q 2594 3103 2138 3103 
Q 1681 3103 1420 2742 
Q 1159 2381 1159 1747 
Q 1159 1113 1420 752 
Q 1681 391 2138 391 
Q 2594 391 2855 752 
Q 3116 1113 3116 1747 
z
M 1159 2969 
Q 1341 3281 1617 3432 
Q 1894 3584 2278 3584 
Q 2916 3584 3314 3078 
Q 3713 2572 3713 1747 
Q 3713 922 3314 415 
Q 2916 -91 2278 -91 
Q 1894 -91 1617 61 
Q 1341 213 1159 525 
L 1159 0 
L 581 0 
L 581 4863 
L 1159 4863 
L 1159 2969 
z
" transform="scale(0.015625)"/>
       <path id="DejaVuSans-75" d="M 544 1381 
L 544 3500 
L 1119 3500 
L 1119 1403 
Q 1119 906 1312 657 
Q 1506 409 1894 409 
Q 2359 409 2629 706 
Q 2900 1003 2900 1516 
L 2900 3500 
L 3475 3500 
L 3475 0 
L 2900 0 
L 2900 538 
Q 2691 219 2414 64 
Q 2138 -91 1772 -91 
Q 1169 -91 856 284 
Q 544 659 544 1381 
z
M 1991 3584 
L 1991 3584 
z
" transform="scale(0.015625)"/>
       <path id="DejaVuSans-6f" d="M 1959 3097 
Q 1497 3097 1228 2736 
Q 959 2375 959 1747 
Q 959 1119 1226 758 
Q 1494 397 1959 397 
Q 2419 397 2687 759 
Q 2956 1122 2956 1747 
Q 2956 2369 2687 2733 
Q 2419 3097 1959 3097 
z
M 1959 3584 
Q 2709 3584 3137 3096 
Q 3566 2609 3566 1747 
Q 3566 888 3137 398 
Q 2709 -91 1959 -91 
Q 1206 -91 779 398 
Q 353 888 353 1747 
Q 353 2609 779 3096 
Q 1206 3584 1959 3584 
z
" transform="scale(0.015625)"/>
       <path id="DejaVuSans-6e" d="M 3513 2113 
L 3513 0 
L 2938 0 
L 2938 2094 
Q 2938 2591 2744 2837 
Q 2550 3084 2163 3084 
Q 1697 3084 1428 2787 
Q 1159 2491 1159 1978 
L 1159 0 
L 581 0 
L 581 3500 
L 1159 3500 
L 1159 2956 
Q 1366 3272 1645 3428 
Q 1925 3584 2291 3584 
Q 2894 3584 3203 3211 
Q 3513 2838 3513 2113 
z
" transform="scale(0.015625)"/>
      </defs>
      <use xlink:href="#DejaVuSans-53"/>
      <use xlink:href="#DejaVuSans-70" x="63.476562"/>
      <use xlink:href="#DejaVuSans-65" x="126.953125"/>
      <use xlink:href="#DejaVuSans-65" x="188.476562"/>
      <use xlink:href="#DejaVuSans-64" x="250"/>
      <use xlink:href="#DejaVuSans-20" x="313.476562"/>
      <use xlink:href="#DejaVuSans-64" x="345.263672"/>
      <use xlink:href="#DejaVuSans-69" x="408.740234"/>
      <use xlink:href="#DejaVuSans-73" x="436.523438"/>
      <use xlink:href="#DejaVuSans-74" x="488.623047"/>
      <use xlink:href="#DejaVuSans-72" x="527.832031"/>
      <use xlink:href="#DejaVuSans-69" x="568.945312"/>
      <use xlink:href="#DejaVuSans-62" x="596.728516"/>
      <use xlink:href="#DejaVuSans-75" x="660.205078"/>
      <use xlink:href="#DejaVuSans-74" x="723.583984"/>
      <use xlink:href="#DejaVuSans-69" x="762.792969"/>
      <use xlink:href="#DejaVuSans-6f" x="790.576172"/>
      <use xlink:href="#DejaVuSans-6e" x="851.757812"/>
     </g>
    </g>
   </g>
   <g id="legend_1">
    <g id="patch_7">
     <path d="M 401.56875 181.539 
L 511.2 181.539 
L 511.2 50.4 
L 401.56875 50.4 
z
" style="fill: #ffffff; stroke: #000000; stroke-linejoin: miter"/>
    </g>
    <g id="line2d_39">
     <path d="M 411.64875 62.06175 
L 431.80875 62.06175 
" style="fill: none; stroke: #0000ff; stroke-linecap: square"/>
    </g>
    <g id="text_19">
     <!-- T=100K -->
     <g transform="translate(447.64875 67.10175) scale(0.144 -0.144)">
      <defs>
       <path id="DejaVuSans-54" d="M -19 4666 
L 3928 4666 
L 3928 4134 
L 2272 4134 
L 2272 0 
L 1638 0 
L 1638 4134 
L -19 4134 
L -19 4666 
z
" transform="scale(0.015625)"/>
       <path id="DejaVuSans-3d" d="M 678 2906 
L 4684 2906 
L 4684 2381 
L 678 2381 
L 678 2906 
z
M 678 1631 
L 4684 1631 
L 4684 1100 
L 678 1100 
L 678 1631 
z
" transform="scale(0.015625)"/>
       <path id="DejaVuSans-4b" d="M 628 4666 
L 1259 4666 
L 1259 2694 
L 3353 4666 
L 4166 4666 
L 1850 2491 
L 4331 0 
L 3500 0 
L 1259 2247 
L 1259 0 
L 628 0 
L 628 4666 
z
" transform="scale(0.015625)"/>
      </defs>
      <use xlink:href="#DejaVuSans-54"/>
      <use xlink:href="#DejaVuSans-3d" x="61.083984"/>
      <use xlink:href="#DejaVuSans-31" x="144.873047"/>
      <use xlink:href="#DejaVuSans-30" x="208.496094"/>
      <use xlink:href="#DejaVuSans-30" x="272.119141"/>
      <use xlink:href="#DejaVuSans-4b" x="335.742188"/>
     </g>
    </g>
    <g id="line2d_40">
     <path d="M 411.64875 83.19825 
L 431.80875 83.19825 
" style="fill: none; stroke: #008000; stroke-linecap: square"/>
    </g>
    <g id="text_20">
     <!-- T=175K -->
     <g transform="translate(447.64875 88.23825) scale(0.144 -0.144)">
      <use xlink:href="#DejaVuSans-54"/>
      <use xlink:href="#DejaVuSans-3d" x="61.083984"/>
      <use xlink:href="#DejaVuSans-31" x="144.873047"/>
      <use xlink:href="#DejaVuSans-37" x="208.496094"/>
      <use xlink:href="#DejaVuSans-35" x="272.119141"/>
      <use xlink:href="#DejaVuSans-4b" x="335.742188"/>
     </g>
    </g>
    <g id="line2d_41">
     <path d="M 411.64875 104.33475 
L 431.80875 104.33475 
" style="fill: none; stroke: #ff0000; stroke-linecap: square"/>
    </g>
    <g id="text_21">
     <!-- T=250K -->
     <g transform="translate(447.64875 109.37475) scale(0.144 -0.144)">
      <use xlink:href="#DejaVuSans-54"/>
      <use xlink:href="#DejaVuSans-3d" x="61.083984"/>
      <use xlink:href="#DejaVuSans-32" x="144.873047"/>
      <use xlink:href="#DejaVuSans-35" x="208.496094"/>
      <use xlink:href="#DejaVuSans-30" x="272.119141"/>
      <use xlink:href="#DejaVuSans-4b" x="335.742188"/>
     </g>
    </g>
    <g id="line2d_42">
     <path d="M 411.64875 125.47125 
L 431.80875 125.47125 
" style="fill: none; stroke: #00bfbf; stroke-linecap: square"/>
    </g>
    <g id="text_22">
     <!-- T=325K -->
     <g transform="translate(447.64875 130.51125) scale(0.144 -0.144)">
      <use xlink:href="#DejaVuSans-54"/>
      <use xlink:href="#DejaVuSans-3d" x="61.083984"/>
      <use xlink:href="#DejaVuSans-33" x="144.873047"/>
      <use xlink:href="#DejaVuSans-32" x="208.496094"/>
      <use xlink:href="#DejaVuSans-35" x="272.119141"/>
      <use xlink:href="#DejaVuSans-4b" x="335.742188"/>
     </g>
    </g>
    <g id="line2d_43">
     <path d="M 411.64875 146.60775 
L 431.80875 146.60775 
" style="fill: none; stroke: #bf00bf; stroke-linecap: square"/>
    </g>
    <g id="text_23">
     <!-- T=400K -->
     <g transform="translate(447.64875 151.64775) scale(0.144 -0.144)">
      <use xlink:href="#DejaVuSans-54"/>
      <use xlink:href="#DejaVuSans-3d" x="61.083984"/>
      <use xlink:href="#DejaVuSans-34" x="144.873047"/>
      <use xlink:href="#DejaVuSans-30" x="208.496094"/>
      <use xlink:href="#DejaVuSans-30" x="272.119141"/>
      <use xlink:href="#DejaVuSans-4b" x="335.742188"/>
     </g>
    </g>
    <g id="line2d_44">
     <path d="M 411.64875 167.74425 
L 431.80875 167.74425 
" style="fill: none; stroke: #bfbf00; stroke-linecap: square"/>
    </g>
    <g id="text_24">
     <!-- T=475K -->
     <g transform="translate(447.64875 172.78425) scale(0.144 -0.144)">
      <use xlink:href="#DejaVuSans-54"/>
      <use xlink:href="#DejaVuSans-3d" x="61.083984"/>
      <use xlink:href="#DejaVuSans-34" x="144.873047"/>
      <use xlink:href="#DejaVuSans-37" x="208.496094"/>
      <use xlink:href="#DejaVuSans-35" x="272.119141"/>
      <use xlink:href="#DejaVuSans-4b" x="335.742188"/>
     </g>
    </g>
   </g>
  </g>
 </g>
 <defs>
  <clipPath id="pff4e6fab13">
   <rect x="72" y="43.2" width="446.4" height="345.6"/>
  </clipPath>
 </defs>
</svg>
