<?xml version="1.0" encoding="utf-8" standalone="no"?>
<!DOCTYPE svg PUBLIC "-//W3C//DTD SVG 1.1//EN"
  "http://www.w3.org/Graphics/SVG/1.1/DTD/svg11.dtd">
<!-- Created with matplotlib (https://matplotlib.org/) -->
<svg height="432pt" version="1.1" viewBox="0 0 576 432" width="576pt" xmlns="http://www.w3.org/2000/svg" xmlns:xlink="http://www.w3.org/1999/xlink">
 <metadata>
  <rdf:RDF xmlns:cc="http://creativecommons.org/ns#" xmlns:dc="http://purl.org/dc/elements/1.1/" xmlns:rdf="http://www.w3.org/1999/02/22-rdf-syntax-ns#">
   <cc:Work>
    <dc:type rdf:resource="http://purl.org/dc/dcmitype/StillImage"/>
    <dc:date>2022-07-25T06:20:32.564800</dc:date>
    <dc:format>image/svg+xml</dc:format>
    <dc:creator>
     <cc:Agent>
      <dc:title>Matplotlib v3.3.2, https://matplotlib.org/</dc:title>
     </cc:Agent>
    </dc:creator>
   </cc:Work>
  </rdf:RDF>
 </metadata>
 <defs>
  <style type="text/css">*{stroke-linecap:butt;stroke-linejoin:round;}</style>
 </defs>
 <g id="figure_1">
  <g id="patch_1">
   <path d="M 0 432 
L 576 432 
L 576 0 
L 0 0 
z
" style="fill:#ffffff;"/>
  </g>
  <g id="axes_1">
   <g id="patch_2">
    <path d="M 72 388.8 
L 518.4 388.8 
L 518.4 43.2 
L 72 43.2 
z
" style="fill:#ffffff;"/>
   </g>
   <g id="line2d_1">
    <path clip-path="url(#pa60f4e55a8)" d="M 72 388.8 
L 77.58 384.072689 
L 83.16 370.178553 
L 88.74 347.959159 
L 94.32 318.746411 
L 99.9 284.263454 
L 105.48 246.499027 
L 111.06 207.566626 
L 116.64 169.560759 
L 122.22 134.42229 
L 127.8 103.823368 
L 133.38 79.079943 
L 138.96 61.096817 
L 144.54 50.346838 
L 150.12 46.882647 
L 155.7 50.376677 
L 161.28 60.183077 
L 166.86 75.414073 
L 172.44 95.022965 
L 178.02 117.886457 
L 183.6 142.880095 
L 189.18 168.942161 
L 194.76 195.123068 
L 200.34 220.619022 
L 205.92 244.790266 
L 211.5 267.165426 
L 217.08 287.434335 
L 222.66 305.432197 
L 228.24 321.118023 
L 233.82 334.550141 
L 239.4 345.861164 
L 244.98 355.234294 
L 250.56 362.882298 
L 256.14 369.029938 
L 261.72 373.900177 
L 267.3 377.704114 
L 272.88 380.634307 
L 278.46 382.861003 
L 284.04 384.530688 
L 289.62 385.766384 
L 295.2 386.669157 
L 300.78 387.320351 
L 306.36 387.784199 
L 311.94 388.110514 
L 317.52 388.337265 
L 323.1 388.492921 
L 328.68 388.59849 
L 334.26 388.669234 
L 339.84 388.716082 
L 345.42 388.74674 
L 351 388.766569 
L 356.58 388.779246 
L 362.16 388.787257 
L 367.74 388.792261 
L 373.32 388.795351 
L 378.9 388.797238 
L 384.48 388.798376 
L 390.06 388.799056 
L 395.64 388.799457 
L 401.22 388.799691 
L 406.8 388.799826 
L 412.38 388.799903 
L 417.96 388.799947 
L 423.54 388.799971 
L 429.12 388.799984 
L 434.7 388.799992 
L 440.28 388.799996 
L 445.86 388.799998 
L 451.44 388.799999 
L 457.02 388.799999 
L 462.6 388.8 
L 468.18 388.8 
L 473.76 388.8 
L 479.34 388.8 
L 484.92 388.8 
L 490.5 388.8 
L 496.08 388.8 
L 501.66 388.8 
L 507.24 388.8 
L 512.82 388.8 
" style="fill:none;stroke:#0000ff;stroke-linecap:square;"/>
   </g>
   <g id="line2d_2">
    <path clip-path="url(#pa60f4e55a8)" d="M 72 388.8 
L 77.58 386.753515 
L 83.16 380.685486 
L 88.74 370.807089 
L 94.32 357.460079 
L 99.9 341.102075 
L 105.48 322.287065 
L 111.06 301.642174 
L 116.64 279.841892 
L 122.22 257.581086 
L 127.8 235.548114 
L 133.38 214.399319 
L 138.96 194.73606 
L 144.54 177.085222 
L 150.12 161.883944 
L 155.7 149.469015 
L 161.28 140.071129 
L 166.86 133.813922 
L 172.44 130.717475 
L 178.02 130.705753 
L 183.6 133.617308 
L 189.18 139.218447 
L 194.76 147.218043 
L 200.34 157.283145 
L 205.92 169.054594 
L 211.5 182.161954 
L 217.08 196.23716 
L 222.66 210.926438 
L 228.24 225.900185 
L 233.82 240.860635 
L 239.4 255.547288 
L 244.98 269.740159 
L 250.56 283.261042 
L 256.14 295.973019 
L 261.72 307.778505 
L 267.3 318.616156 
L 272.88 328.456948 
L 278.46 337.299731 
L 284.04 345.166546 
L 289.62 352.097932 
L 295.2 358.148426 
L 300.78 363.382398 
L 306.36 367.870345 
L 311.94 371.685682 
L 317.52 374.90208 
L 323.1 377.591337 
L 328.68 379.821757 
L 334.26 381.656996 
L 339.84 383.155316 
L 345.42 384.369181 
L 351 385.345152 
L 356.58 386.123982 
L 362.16 386.740899 
L 367.74 387.225989 
L 373.32 387.604661 
L 378.9 387.898141 
L 384.48 388.123976 
L 390.06 388.296533 
L 395.64 388.427458 
L 401.22 388.526106 
L 406.8 388.59992 
L 412.38 388.654773 
L 417.96 388.695258 
L 423.54 388.724937 
L 429.12 388.746546 
L 434.7 388.762175 
L 440.28 388.773402 
L 445.86 388.781415 
L 451.44 388.787095 
L 457.02 388.791095 
L 462.6 388.793894 
L 468.18 388.795839 
L 473.76 388.797182 
L 479.34 388.798104 
L 484.92 388.798732 
L 490.5 388.799157 
L 496.08 388.799443 
L 501.66 388.799634 
L 507.24 388.799761 
L 512.82 388.799845 
" style="fill:none;stroke:#008000;stroke-linecap:square;"/>
   </g>
   <g id="line2d_3">
    <path clip-path="url(#pa60f4e55a8)" d="M 72 388.8 
L 77.58 387.6004 
L 83.16 384.030949 
L 88.74 378.178789 
L 94.32 370.186211 
L 99.9 360.246332 
L 105.48 348.597293 
L 111.06 335.515172 
L 116.64 321.305878 
L 122.22 306.296327 
L 127.8 290.825208 
L 133.38 275.233667 
L 138.96 259.856217 
L 144.54 245.012179 
L 150.12 230.997911 
L 155.7 218.080051 
L 161.28 206.489955 
L 166.86 196.419455 
L 172.44 188.017993 
L 178.02 181.391163 
L 183.6 176.600617 
L 189.18 173.665241 
L 194.76 172.56349 
L 200.34 173.236711 
L 205.92 175.593286 
L 211.5 179.513375 
L 217.08 184.854083 
L 222.66 191.454827 
L 228.24 199.142727 
L 233.82 207.737842 
L 239.4 217.0581 
L 244.98 226.923802 
L 250.56 237.161592 
L 256.14 247.607837 
L 261.72 258.111373 
L 267.3 268.535597 
L 272.88 278.75993 
L 278.46 288.680666 
L 284.04 298.211276 
L 289.62 307.282209 
L 295.2 315.840271 
L 300.78 323.847663 
L 306.36 331.28074 
L 311.94 338.128582 
L 317.52 344.391436 
L 323.1 350.0791 
L 328.68 355.209311 
L 334.26 359.80617 
L 339.84 363.898656 
L 345.42 367.519262 
L 351 370.702751 
L 356.58 373.48508 
L 362.16 375.902466 
L 367.74 377.99061 
L 373.32 379.784077 
L 378.9 381.315806 
L 384.48 382.616754 
L 390.06 383.715657 
L 395.64 384.638887 
L 401.22 385.41039 
L 406.8 386.051699 
L 412.38 386.582002 
L 417.96 387.018243 
L 423.54 387.375266 
L 429.12 387.665972 
L 434.7 387.901485 
L 440.28 388.091328 
L 445.86 388.243597 
L 451.44 388.365125 
L 457.02 388.461643 
L 462.6 388.537924 
L 468.18 388.597919 
L 473.76 388.644877 
L 479.34 388.681456 
L 484.92 388.709812 
L 490.5 388.731691 
L 496.08 388.748491 
L 501.66 388.761332 
L 507.24 388.771099 
L 512.82 388.778495 
" style="fill:none;stroke:#ff0000;stroke-linecap:square;"/>
   </g>
   <g id="line2d_4">
    <path clip-path="url(#pa60f4e55a8)" d="M 72 388.8 
L 77.58 387.990296 
L 83.16 385.576433 
L 88.74 381.603795 
L 94.32 376.146843 
L 99.9 369.307365 
L 105.48 361.212119 
L 111.06 352.009905 
L 116.64 341.86817 
L 122.22 330.969239 
L 127.8 319.506268 
L 133.38 307.67904 
L 138.96 295.689716 
L 144.54 283.738644 
L 150.12 272.020342 
L 155.7 260.71975 
L 161.28 250.008833 
L 166.86 240.043617 
L 172.44 230.961708 
L 178.02 222.880339 
L 183.6 215.894974 
L 189.18 210.078465 
L 194.76 205.480773 
L 200.34 202.129204 
L 205.92 200.02915 
L 211.5 199.16526 
L 217.08 199.503012 
L 222.66 200.990589 
L 228.24 203.561015 
L 233.82 207.134473 
L 239.4 211.620722 
L 244.98 216.921567 
L 250.56 222.933292 
L 256.14 229.549021 
L 261.72 236.660943 
L 267.3 244.162362 
L 272.88 251.949538 
L 278.46 259.923289 
L 284.04 267.990355 
L 289.62 276.064489 
L 295.2 284.067298 
L 300.78 291.928834 
L 306.36 299.587938 
L 311.94 306.992375 
L 317.52 314.098763 
L 323.1 320.872329 
L 328.68 327.286519 
L 334.26 333.322485 
L 339.84 338.968485 
L 345.42 344.219207 
L 351 349.07505 
L 356.58 353.541397 
L 362.16 357.627866 
L 367.74 361.347597 
L 373.32 364.716554 
L 378.9 367.752881 
L 384.48 370.476299 
L 390.06 372.907567 
L 395.64 375.067996 
L 401.22 376.979036 
L 406.8 378.661914 
L 412.38 380.137336 
L 417.96 381.425252 
L 423.54 382.544665 
L 429.12 383.513493 
L 434.7 384.348476 
L 440.28 385.06512 
L 445.86 385.67767 
L 451.44 386.199115 
L 457.02 386.641215 
L 462.6 387.014545 
L 468.18 387.328553 
L 473.76 387.591625 
L 479.34 387.811162 
L 484.92 387.993658 
L 490.5 388.144778 
L 496.08 388.269437 
L 501.66 388.371877 
L 507.24 388.45574 
L 512.82 388.524135 
" style="fill:none;stroke:#00bfbf;stroke-linecap:square;"/>
   </g>
   <g id="line2d_5">
    <path clip-path="url(#pa60f4e55a8)" d="M 72 388.8 
L 77.58 388.206816 
L 83.16 386.436344 
L 88.74 383.515652 
L 94.32 379.489277 
L 99.9 374.418378 
L 105.48 368.379579 
L 111.06 361.463529 
L 116.64 353.773206 
L 122.22 345.422016 
L 127.8 336.531727 
L 133.38 327.230277 
L 138.96 317.649513 
L 144.54 307.922911 
L 150.12 298.183313 
L 155.7 288.560752 
L 161.28 279.180379 
L 166.86 270.160558 
L 172.44 261.611145 
L 178.02 253.63199 
L 183.6 246.311684 
L 189.18 239.726561 
L 194.76 233.939971 
L 200.34 229.001826 
L 205.92 224.948408 
L 211.5 221.802445 
L 217.08 219.573419 
L 222.66 218.258109 
L 228.24 217.841324 
L 233.82 218.296817 
L 239.4 219.588339 
L 244.98 221.670803 
L 250.56 224.491539 
L 256.14 227.991589 
L 261.72 232.107036 
L 267.3 236.770312 
L 272.88 241.911483 
L 278.46 247.459476 
L 284.04 253.343229 
L 289.62 259.492745 
L 295.2 265.840047 
L 300.78 272.320012 
L 306.36 278.871081 
L 311.94 285.43585 
L 317.52 291.961534 
L 323.1 298.400304 
L 328.68 304.709511 
L 334.26 310.851803 
L 339.84 316.795133 
L 345.42 322.512685 
L 351 327.982713 
L 356.58 333.188318 
L 362.16 338.117168 
L 367.74 342.761166 
L 373.32 347.116098 
L 378.9 351.18125 
L 384.48 354.959011 
L 390.06 358.45448 
L 395.64 361.67507 
L 401.22 364.630131 
L 406.8 367.330582 
L 412.38 369.788568 
L 417.96 372.017147 
L 423.54 374.029995 
L 429.12 375.841149 
L 434.7 377.464775 
L 440.28 378.914969 
L 445.86 380.205583 
L 451.44 381.350088 
L 457.02 382.361453 
L 462.6 383.252057 
L 468.18 384.033619 
L 473.76 384.717154 
L 479.34 385.312938 
L 484.92 385.830502 
L 490.5 386.278623 
L 496.08 386.665344 
L 501.66 386.997988 
L 507.24 387.283192 
L 512.82 387.526935 
" style="fill:none;stroke:#bf00bf;stroke-linecap:square;"/>
   </g>
   <g id="line2d_6">
    <path clip-path="url(#pa60f4e55a8)" d="M 72 388.8 
L 77.58 388.341513 
L 83.16 386.971966 
L 88.74 384.708998 
L 94.32 381.581694 
L 99.9 377.63012 
L 105.48 372.904677 
L 111.06 367.465304 
L 116.64 361.380532 
L 122.22 354.726409 
L 127.8 347.585325 
L 133.38 340.044749 
L 138.96 332.195908 
L 144.54 324.132436 
L 150.12 315.949005 
L 155.7 307.739979 
L 161.28 299.598102 
L 166.86 291.613248 
L 172.44 283.871254 
L 178.02 276.452844 
L 183.6 269.432682 
L 189.18 262.878539 
L 194.76 256.850605 
L 200.34 251.400944 
L 205.92 246.573097 
L 211.5 242.401834 
L 217.08 238.913051 
L 222.66 236.123809 
L 228.24 234.042512 
L 233.82 232.669201 
L 239.4 231.995966 
L 244.98 232.007458 
L 250.56 232.681482 
L 256.14 233.989666 
L 261.72 235.898176 
L 267.3 238.368481 
L 272.88 241.35813 
L 278.46 244.821544 
L 284.04 248.710802 
L 289.62 252.976406 
L 295.2 257.568017 
L 300.78 262.43515 
L 306.36 267.527823 
L 311.94 272.797144 
L 317.52 278.195841 
L 323.1 283.678724 
L 328.68 289.20308 
L 334.26 294.728999 
L 339.84 300.21963 
L 345.42 305.641376 
L 351 310.964016 
L 356.58 316.160776 
L 362.16 321.208338 
L 367.74 326.086806 
L 373.32 330.779615 
L 378.9 335.273416 
L 384.48 339.557916 
L 390.06 343.625697 
L 395.64 347.472011 
L 401.22 351.094561 
L 406.8 354.49327 
L 412.38 357.670045 
L 417.96 360.628539 
L 423.54 363.37392 
L 429.12 365.912638 
L 434.7 368.252209 
L 440.28 370.401006 
L 445.86 372.368063 
L 451.44 374.162898 
L 457.02 375.795349 
L 462.6 377.275422 
L 468.18 378.613166 
L 473.76 379.818554 
L 479.34 380.901387 
L 484.92 381.871206 
L 490.5 382.737232 
L 496.08 383.508303 
L 501.66 384.192835 
L 507.24 384.798792 
L 512.82 385.333662 
" style="fill:none;stroke:#bfbf00;stroke-linecap:square;"/>
   </g>
   <g id="patch_3">
    <path d="M 72 388.8 
L 72 43.2 
" style="fill:none;stroke:#000000;stroke-linecap:square;stroke-linejoin:miter;"/>
   </g>
   <g id="patch_4">
    <path d="M 518.4 388.8 
L 518.4 43.2 
" style="fill:none;stroke:#000000;stroke-linecap:square;stroke-linejoin:miter;"/>
   </g>
   <g id="patch_5">
    <path d="M 72 388.8 
L 518.4 388.8 
" style="fill:none;stroke:#000000;stroke-linecap:square;stroke-linejoin:miter;"/>
   </g>
   <g id="patch_6">
    <path d="M 72 43.2 
L 518.4 43.2 
" style="fill:none;stroke:#000000;stroke-linecap:square;stroke-linejoin:miter;"/>
   </g>
   <g id="matplotlib.axis_1">
    <g id="xtick_1">
     <g id="line2d_7">
      <defs>
       <path d="M 0 0 
L 0 -4 
" id="m3762f32990" style="stroke:#000000;stroke-width:0.5;"/>
      </defs>
      <g>
       <use style="stroke:#000000;stroke-width:0.5;" x="72" xlink:href="#m3762f32990" y="388.8"/>
      </g>
     </g>
     <g id="line2d_8">
      <defs>
       <path d="M 0 0 
L 0 4 
" id="mc96ebb07b2" style="stroke:#000000;stroke-width:0.5;"/>
      </defs>
      <g>
       <use style="stroke:#000000;stroke-width:0.5;" x="72" xlink:href="#mc96ebb07b2" y="43.2"/>
      </g>
     </g>
     <g id="text_1">
      <!-- 0 -->
      <g transform="translate(68.1825 401.918125)scale(0.12 -0.12)">
       <defs>
        <path d="M 31.78125 66.40625 
Q 24.171875 66.40625 20.328125 58.90625 
Q 16.5 51.421875 16.5 36.375 
Q 16.5 21.390625 20.328125 13.890625 
Q 24.171875 6.390625 31.78125 6.390625 
Q 39.453125 6.390625 43.28125 13.890625 
Q 47.125 21.390625 47.125 36.375 
Q 47.125 51.421875 43.28125 58.90625 
Q 39.453125 66.40625 31.78125 66.40625 
z
M 31.78125 74.21875 
Q 44.046875 74.21875 50.515625 64.515625 
Q 56.984375 54.828125 56.984375 36.375 
Q 56.984375 17.96875 50.515625 8.265625 
Q 44.046875 -1.421875 31.78125 -1.421875 
Q 19.53125 -1.421875 13.0625 8.265625 
Q 6.59375 17.96875 6.59375 36.375 
Q 6.59375 54.828125 13.0625 64.515625 
Q 19.53125 74.21875 31.78125 74.21875 
z
" id="DejaVuSans-48"/>
       </defs>
       <use xlink:href="#DejaVuSans-48"/>
      </g>
     </g>
    </g>
    <g id="xtick_2">
     <g id="line2d_9">
      <g>
       <use style="stroke:#000000;stroke-width:0.5;" x="127.8" xlink:href="#m3762f32990" y="388.8"/>
      </g>
     </g>
     <g id="line2d_10">
      <g>
       <use style="stroke:#000000;stroke-width:0.5;" x="127.8" xlink:href="#mc96ebb07b2" y="43.2"/>
      </g>
     </g>
     <g id="text_2">
      <!-- 100 -->
      <g transform="translate(116.3475 401.918125)scale(0.12 -0.12)">
       <defs>
        <path d="M 12.40625 8.296875 
L 28.515625 8.296875 
L 28.515625 63.921875 
L 10.984375 60.40625 
L 10.984375 69.390625 
L 28.421875 72.90625 
L 38.28125 72.90625 
L 38.28125 8.296875 
L 54.390625 8.296875 
L 54.390625 0 
L 12.40625 0 
z
" id="DejaVuSans-49"/>
       </defs>
       <use xlink:href="#DejaVuSans-49"/>
       <use x="63.623047" xlink:href="#DejaVuSans-48"/>
       <use x="127.246094" xlink:href="#DejaVuSans-48"/>
      </g>
     </g>
    </g>
    <g id="xtick_3">
     <g id="line2d_11">
      <g>
       <use style="stroke:#000000;stroke-width:0.5;" x="183.6" xlink:href="#m3762f32990" y="388.8"/>
      </g>
     </g>
     <g id="line2d_12">
      <g>
       <use style="stroke:#000000;stroke-width:0.5;" x="183.6" xlink:href="#mc96ebb07b2" y="43.2"/>
      </g>
     </g>
     <g id="text_3">
      <!-- 200 -->
      <g transform="translate(172.1475 401.918125)scale(0.12 -0.12)">
       <defs>
        <path d="M 19.1875 8.296875 
L 53.609375 8.296875 
L 53.609375 0 
L 7.328125 0 
L 7.328125 8.296875 
Q 12.9375 14.109375 22.625 23.890625 
Q 32.328125 33.6875 34.8125 36.53125 
Q 39.546875 41.84375 41.421875 45.53125 
Q 43.3125 49.21875 43.3125 52.78125 
Q 43.3125 58.59375 39.234375 62.25 
Q 35.15625 65.921875 28.609375 65.921875 
Q 23.96875 65.921875 18.8125 64.3125 
Q 13.671875 62.703125 7.8125 59.421875 
L 7.8125 69.390625 
Q 13.765625 71.78125 18.9375 73 
Q 24.125 74.21875 28.421875 74.21875 
Q 39.75 74.21875 46.484375 68.546875 
Q 53.21875 62.890625 53.21875 53.421875 
Q 53.21875 48.921875 51.53125 44.890625 
Q 49.859375 40.875 45.40625 35.40625 
Q 44.1875 33.984375 37.640625 27.21875 
Q 31.109375 20.453125 19.1875 8.296875 
z
" id="DejaVuSans-50"/>
       </defs>
       <use xlink:href="#DejaVuSans-50"/>
       <use x="63.623047" xlink:href="#DejaVuSans-48"/>
       <use x="127.246094" xlink:href="#DejaVuSans-48"/>
      </g>
     </g>
    </g>
    <g id="xtick_4">
     <g id="line2d_13">
      <g>
       <use style="stroke:#000000;stroke-width:0.5;" x="239.4" xlink:href="#m3762f32990" y="388.8"/>
      </g>
     </g>
     <g id="line2d_14">
      <g>
       <use style="stroke:#000000;stroke-width:0.5;" x="239.4" xlink:href="#mc96ebb07b2" y="43.2"/>
      </g>
     </g>
     <g id="text_4">
      <!-- 300 -->
      <g transform="translate(227.9475 401.918125)scale(0.12 -0.12)">
       <defs>
        <path d="M 40.578125 39.3125 
Q 47.65625 37.796875 51.625 33 
Q 55.609375 28.21875 55.609375 21.1875 
Q 55.609375 10.40625 48.1875 4.484375 
Q 40.765625 -1.421875 27.09375 -1.421875 
Q 22.515625 -1.421875 17.65625 -0.515625 
Q 12.796875 0.390625 7.625 2.203125 
L 7.625 11.71875 
Q 11.71875 9.328125 16.59375 8.109375 
Q 21.484375 6.890625 26.8125 6.890625 
Q 36.078125 6.890625 40.9375 10.546875 
Q 45.796875 14.203125 45.796875 21.1875 
Q 45.796875 27.640625 41.28125 31.265625 
Q 36.765625 34.90625 28.71875 34.90625 
L 20.21875 34.90625 
L 20.21875 43.015625 
L 29.109375 43.015625 
Q 36.375 43.015625 40.234375 45.921875 
Q 44.09375 48.828125 44.09375 54.296875 
Q 44.09375 59.90625 40.109375 62.90625 
Q 36.140625 65.921875 28.71875 65.921875 
Q 24.65625 65.921875 20.015625 65.03125 
Q 15.375 64.15625 9.8125 62.3125 
L 9.8125 71.09375 
Q 15.4375 72.65625 20.34375 73.4375 
Q 25.25 74.21875 29.59375 74.21875 
Q 40.828125 74.21875 47.359375 69.109375 
Q 53.90625 64.015625 53.90625 55.328125 
Q 53.90625 49.265625 50.4375 45.09375 
Q 46.96875 40.921875 40.578125 39.3125 
z
" id="DejaVuSans-51"/>
       </defs>
       <use xlink:href="#DejaVuSans-51"/>
       <use x="63.623047" xlink:href="#DejaVuSans-48"/>
       <use x="127.246094" xlink:href="#DejaVuSans-48"/>
      </g>
     </g>
    </g>
    <g id="xtick_5">
     <g id="line2d_15">
      <g>
       <use style="stroke:#000000;stroke-width:0.5;" x="295.2" xlink:href="#m3762f32990" y="388.8"/>
      </g>
     </g>
     <g id="line2d_16">
      <g>
       <use style="stroke:#000000;stroke-width:0.5;" x="295.2" xlink:href="#mc96ebb07b2" y="43.2"/>
      </g>
     </g>
     <g id="text_5">
      <!-- 400 -->
      <g transform="translate(283.7475 401.918125)scale(0.12 -0.12)">
       <defs>
        <path d="M 37.796875 64.3125 
L 12.890625 25.390625 
L 37.796875 25.390625 
z
M 35.203125 72.90625 
L 47.609375 72.90625 
L 47.609375 25.390625 
L 58.015625 25.390625 
L 58.015625 17.1875 
L 47.609375 17.1875 
L 47.609375 0 
L 37.796875 0 
L 37.796875 17.1875 
L 4.890625 17.1875 
L 4.890625 26.703125 
z
" id="DejaVuSans-52"/>
       </defs>
       <use xlink:href="#DejaVuSans-52"/>
       <use x="63.623047" xlink:href="#DejaVuSans-48"/>
       <use x="127.246094" xlink:href="#DejaVuSans-48"/>
      </g>
     </g>
    </g>
    <g id="xtick_6">
     <g id="line2d_17">
      <g>
       <use style="stroke:#000000;stroke-width:0.5;" x="351" xlink:href="#m3762f32990" y="388.8"/>
      </g>
     </g>
     <g id="line2d_18">
      <g>
       <use style="stroke:#000000;stroke-width:0.5;" x="351" xlink:href="#mc96ebb07b2" y="43.2"/>
      </g>
     </g>
     <g id="text_6">
      <!-- 500 -->
      <g transform="translate(339.5475 401.918125)scale(0.12 -0.12)">
       <defs>
        <path d="M 10.796875 72.90625 
L 49.515625 72.90625 
L 49.515625 64.59375 
L 19.828125 64.59375 
L 19.828125 46.734375 
Q 21.96875 47.46875 24.109375 47.828125 
Q 26.265625 48.1875 28.421875 48.1875 
Q 40.625 48.1875 47.75 41.5 
Q 54.890625 34.8125 54.890625 23.390625 
Q 54.890625 11.625 47.5625 5.09375 
Q 40.234375 -1.421875 26.90625 -1.421875 
Q 22.3125 -1.421875 17.546875 -0.640625 
Q 12.796875 0.140625 7.71875 1.703125 
L 7.71875 11.625 
Q 12.109375 9.234375 16.796875 8.0625 
Q 21.484375 6.890625 26.703125 6.890625 
Q 35.15625 6.890625 40.078125 11.328125 
Q 45.015625 15.765625 45.015625 23.390625 
Q 45.015625 31 40.078125 35.4375 
Q 35.15625 39.890625 26.703125 39.890625 
Q 22.75 39.890625 18.8125 39.015625 
Q 14.890625 38.140625 10.796875 36.28125 
z
" id="DejaVuSans-53"/>
       </defs>
       <use xlink:href="#DejaVuSans-53"/>
       <use x="63.623047" xlink:href="#DejaVuSans-48"/>
       <use x="127.246094" xlink:href="#DejaVuSans-48"/>
      </g>
     </g>
    </g>
    <g id="xtick_7">
     <g id="line2d_19">
      <g>
       <use style="stroke:#000000;stroke-width:0.5;" x="406.8" xlink:href="#m3762f32990" y="388.8"/>
      </g>
     </g>
     <g id="line2d_20">
      <g>
       <use style="stroke:#000000;stroke-width:0.5;" x="406.8" xlink:href="#mc96ebb07b2" y="43.2"/>
      </g>
     </g>
     <g id="text_7">
      <!-- 600 -->
      <g transform="translate(395.3475 401.918125)scale(0.12 -0.12)">
       <defs>
        <path d="M 33.015625 40.375 
Q 26.375 40.375 22.484375 35.828125 
Q 18.609375 31.296875 18.609375 23.390625 
Q 18.609375 15.53125 22.484375 10.953125 
Q 26.375 6.390625 33.015625 6.390625 
Q 39.65625 6.390625 43.53125 10.953125 
Q 47.40625 15.53125 47.40625 23.390625 
Q 47.40625 31.296875 43.53125 35.828125 
Q 39.65625 40.375 33.015625 40.375 
z
M 52.59375 71.296875 
L 52.59375 62.3125 
Q 48.875 64.0625 45.09375 64.984375 
Q 41.3125 65.921875 37.59375 65.921875 
Q 27.828125 65.921875 22.671875 59.328125 
Q 17.53125 52.734375 16.796875 39.40625 
Q 19.671875 43.65625 24.015625 45.921875 
Q 28.375 48.1875 33.59375 48.1875 
Q 44.578125 48.1875 50.953125 41.515625 
Q 57.328125 34.859375 57.328125 23.390625 
Q 57.328125 12.15625 50.6875 5.359375 
Q 44.046875 -1.421875 33.015625 -1.421875 
Q 20.359375 -1.421875 13.671875 8.265625 
Q 6.984375 17.96875 6.984375 36.375 
Q 6.984375 53.65625 15.1875 63.9375 
Q 23.390625 74.21875 37.203125 74.21875 
Q 40.921875 74.21875 44.703125 73.484375 
Q 48.484375 72.75 52.59375 71.296875 
z
" id="DejaVuSans-54"/>
       </defs>
       <use xlink:href="#DejaVuSans-54"/>
       <use x="63.623047" xlink:href="#DejaVuSans-48"/>
       <use x="127.246094" xlink:href="#DejaVuSans-48"/>
      </g>
     </g>
    </g>
    <g id="xtick_8">
     <g id="line2d_21">
      <g>
       <use style="stroke:#000000;stroke-width:0.5;" x="462.6" xlink:href="#m3762f32990" y="388.8"/>
      </g>
     </g>
     <g id="line2d_22">
      <g>
       <use style="stroke:#000000;stroke-width:0.5;" x="462.6" xlink:href="#mc96ebb07b2" y="43.2"/>
      </g>
     </g>
     <g id="text_8">
      <!-- 700 -->
      <g transform="translate(451.1475 401.918125)scale(0.12 -0.12)">
       <defs>
        <path d="M 8.203125 72.90625 
L 55.078125 72.90625 
L 55.078125 68.703125 
L 28.609375 0 
L 18.3125 0 
L 43.21875 64.59375 
L 8.203125 64.59375 
z
" id="DejaVuSans-55"/>
       </defs>
       <use xlink:href="#DejaVuSans-55"/>
       <use x="63.623047" xlink:href="#DejaVuSans-48"/>
       <use x="127.246094" xlink:href="#DejaVuSans-48"/>
      </g>
     </g>
    </g>
    <g id="xtick_9">
     <g id="line2d_23">
      <g>
       <use style="stroke:#000000;stroke-width:0.5;" x="518.4" xlink:href="#m3762f32990" y="388.8"/>
      </g>
     </g>
     <g id="line2d_24">
      <g>
       <use style="stroke:#000000;stroke-width:0.5;" x="518.4" xlink:href="#mc96ebb07b2" y="43.2"/>
      </g>
     </g>
     <g id="text_9">
      <!-- 800 -->
      <g transform="translate(506.9475 401.918125)scale(0.12 -0.12)">
       <defs>
        <path d="M 31.78125 34.625 
Q 24.75 34.625 20.71875 30.859375 
Q 16.703125 27.09375 16.703125 20.515625 
Q 16.703125 13.921875 20.71875 10.15625 
Q 24.75 6.390625 31.78125 6.390625 
Q 38.8125 6.390625 42.859375 10.171875 
Q 46.921875 13.96875 46.921875 20.515625 
Q 46.921875 27.09375 42.890625 30.859375 
Q 38.875 34.625 31.78125 34.625 
z
M 21.921875 38.8125 
Q 15.578125 40.375 12.03125 44.71875 
Q 8.5 49.078125 8.5 55.328125 
Q 8.5 64.0625 14.71875 69.140625 
Q 20.953125 74.21875 31.78125 74.21875 
Q 42.671875 74.21875 48.875 69.140625 
Q 55.078125 64.0625 55.078125 55.328125 
Q 55.078125 49.078125 51.53125 44.71875 
Q 48 40.375 41.703125 38.8125 
Q 48.828125 37.15625 52.796875 32.3125 
Q 56.78125 27.484375 56.78125 20.515625 
Q 56.78125 9.90625 50.3125 4.234375 
Q 43.84375 -1.421875 31.78125 -1.421875 
Q 19.734375 -1.421875 13.25 4.234375 
Q 6.78125 9.90625 6.78125 20.515625 
Q 6.78125 27.484375 10.78125 32.3125 
Q 14.796875 37.15625 21.921875 38.8125 
z
M 18.3125 54.390625 
Q 18.3125 48.734375 21.84375 45.5625 
Q 25.390625 42.390625 31.78125 42.390625 
Q 38.140625 42.390625 41.71875 45.5625 
Q 45.3125 48.734375 45.3125 54.390625 
Q 45.3125 60.0625 41.71875 63.234375 
Q 38.140625 66.40625 31.78125 66.40625 
Q 25.390625 66.40625 21.84375 63.234375 
Q 18.3125 60.0625 18.3125 54.390625 
z
" id="DejaVuSans-56"/>
       </defs>
       <use xlink:href="#DejaVuSans-56"/>
       <use x="63.623047" xlink:href="#DejaVuSans-48"/>
       <use x="127.246094" xlink:href="#DejaVuSans-48"/>
      </g>
     </g>
    </g>
    <g id="text_10">
     <!-- Speed -->
     <g transform="translate(276.389062 418.531875)scale(0.12 -0.12)">
      <defs>
       <path d="M 53.515625 70.515625 
L 53.515625 60.890625 
Q 47.90625 63.578125 42.921875 64.890625 
Q 37.9375 66.21875 33.296875 66.21875 
Q 25.25 66.21875 20.875 63.09375 
Q 16.5 59.96875 16.5 54.203125 
Q 16.5 49.359375 19.40625 46.890625 
Q 22.3125 44.4375 30.421875 42.921875 
L 36.375 41.703125 
Q 47.40625 39.59375 52.65625 34.296875 
Q 57.90625 29 57.90625 20.125 
Q 57.90625 9.515625 50.796875 4.046875 
Q 43.703125 -1.421875 29.984375 -1.421875 
Q 24.8125 -1.421875 18.96875 -0.25 
Q 13.140625 0.921875 6.890625 3.21875 
L 6.890625 13.375 
Q 12.890625 10.015625 18.65625 8.296875 
Q 24.421875 6.59375 29.984375 6.59375 
Q 38.421875 6.59375 43.015625 9.90625 
Q 47.609375 13.234375 47.609375 19.390625 
Q 47.609375 24.75 44.3125 27.78125 
Q 41.015625 30.8125 33.5 32.328125 
L 27.484375 33.5 
Q 16.453125 35.6875 11.515625 40.375 
Q 6.59375 45.0625 6.59375 53.421875 
Q 6.59375 63.09375 13.40625 68.65625 
Q 20.21875 74.21875 32.171875 74.21875 
Q 37.3125 74.21875 42.625 73.28125 
Q 47.953125 72.359375 53.515625 70.515625 
z
" id="DejaVuSans-83"/>
       <path d="M 18.109375 8.203125 
L 18.109375 -20.796875 
L 9.078125 -20.796875 
L 9.078125 54.6875 
L 18.109375 54.6875 
L 18.109375 46.390625 
Q 20.953125 51.265625 25.265625 53.625 
Q 29.59375 56 35.59375 56 
Q 45.5625 56 51.78125 48.09375 
Q 58.015625 40.1875 58.015625 27.296875 
Q 58.015625 14.40625 51.78125 6.484375 
Q 45.5625 -1.421875 35.59375 -1.421875 
Q 29.59375 -1.421875 25.265625 0.953125 
Q 20.953125 3.328125 18.109375 8.203125 
z
M 48.6875 27.296875 
Q 48.6875 37.203125 44.609375 42.84375 
Q 40.53125 48.484375 33.40625 48.484375 
Q 26.265625 48.484375 22.1875 42.84375 
Q 18.109375 37.203125 18.109375 27.296875 
Q 18.109375 17.390625 22.1875 11.75 
Q 26.265625 6.109375 33.40625 6.109375 
Q 40.53125 6.109375 44.609375 11.75 
Q 48.6875 17.390625 48.6875 27.296875 
z
" id="DejaVuSans-112"/>
       <path d="M 56.203125 29.59375 
L 56.203125 25.203125 
L 14.890625 25.203125 
Q 15.484375 15.921875 20.484375 11.0625 
Q 25.484375 6.203125 34.421875 6.203125 
Q 39.59375 6.203125 44.453125 7.46875 
Q 49.3125 8.734375 54.109375 11.28125 
L 54.109375 2.78125 
Q 49.265625 0.734375 44.1875 -0.34375 
Q 39.109375 -1.421875 33.890625 -1.421875 
Q 20.796875 -1.421875 13.15625 6.1875 
Q 5.515625 13.8125 5.515625 26.8125 
Q 5.515625 40.234375 12.765625 48.109375 
Q 20.015625 56 32.328125 56 
Q 43.359375 56 49.78125 48.890625 
Q 56.203125 41.796875 56.203125 29.59375 
z
M 47.21875 32.234375 
Q 47.125 39.59375 43.09375 43.984375 
Q 39.0625 48.390625 32.421875 48.390625 
Q 24.90625 48.390625 20.390625 44.140625 
Q 15.875 39.890625 15.1875 32.171875 
z
" id="DejaVuSans-101"/>
       <path d="M 45.40625 46.390625 
L 45.40625 75.984375 
L 54.390625 75.984375 
L 54.390625 0 
L 45.40625 0 
L 45.40625 8.203125 
Q 42.578125 3.328125 38.25 0.953125 
Q 33.9375 -1.421875 27.875 -1.421875 
Q 17.96875 -1.421875 11.734375 6.484375 
Q 5.515625 14.40625 5.515625 27.296875 
Q 5.515625 40.1875 11.734375 48.09375 
Q 17.96875 56 27.875 56 
Q 33.9375 56 38.25 53.625 
Q 42.578125 51.265625 45.40625 46.390625 
z
M 14.796875 27.296875 
Q 14.796875 17.390625 18.875 11.75 
Q 22.953125 6.109375 30.078125 6.109375 
Q 37.203125 6.109375 41.296875 11.75 
Q 45.40625 17.390625 45.40625 27.296875 
Q 45.40625 37.203125 41.296875 42.84375 
Q 37.203125 48.484375 30.078125 48.484375 
Q 22.953125 48.484375 18.875 42.84375 
Q 14.796875 37.203125 14.796875 27.296875 
z
" id="DejaVuSans-100"/>
      </defs>
      <use xlink:href="#DejaVuSans-83"/>
      <use x="63.476562" xlink:href="#DejaVuSans-112"/>
      <use x="126.953125" xlink:href="#DejaVuSans-101"/>
      <use x="188.476562" xlink:href="#DejaVuSans-101"/>
      <use x="250" xlink:href="#DejaVuSans-100"/>
     </g>
    </g>
   </g>
   <g id="matplotlib.axis_2">
    <g id="ytick_1">
     <g id="line2d_25">
      <defs>
       <path d="M 0 0 
L 4 0 
" id="m62eedd48ec" style="stroke:#000000;stroke-width:0.5;"/>
      </defs>
      <g>
       <use style="stroke:#000000;stroke-width:0.5;" x="72" xlink:href="#m62eedd48ec" y="388.8"/>
      </g>
     </g>
     <g id="line2d_26">
      <defs>
       <path d="M 0 0 
L -4 0 
" id="m66db951475" style="stroke:#000000;stroke-width:0.5;"/>
      </defs>
      <g>
       <use style="stroke:#000000;stroke-width:0.5;" x="518.4" xlink:href="#m66db951475" y="388.8"/>
      </g>
     </g>
     <g id="text_11">
      <!-- 0.000 -->
      <g transform="translate(33.64625 392.11125)scale(0.12 -0.12)">
       <defs>
        <path d="M 10.6875 12.40625 
L 21 12.40625 
L 21 0 
L 10.6875 0 
z
" id="DejaVuSans-46"/>
       </defs>
       <use xlink:href="#DejaVuSans-48"/>
       <use x="63.623047" xlink:href="#DejaVuSans-46"/>
       <use x="95.410156" xlink:href="#DejaVuSans-48"/>
       <use x="159.033203" xlink:href="#DejaVuSans-48"/>
       <use x="222.65625" xlink:href="#DejaVuSans-48"/>
      </g>
     </g>
    </g>
    <g id="ytick_2">
     <g id="line2d_27">
      <g>
       <use style="stroke:#000000;stroke-width:0.5;" x="72" xlink:href="#m62eedd48ec" y="331.2"/>
      </g>
     </g>
     <g id="line2d_28">
      <g>
       <use style="stroke:#000000;stroke-width:0.5;" x="518.4" xlink:href="#m66db951475" y="331.2"/>
      </g>
     </g>
     <g id="text_12">
      <!-- 0.001 -->
      <g transform="translate(33.64625 334.51125)scale(0.12 -0.12)">
       <use xlink:href="#DejaVuSans-48"/>
       <use x="63.623047" xlink:href="#DejaVuSans-46"/>
       <use x="95.410156" xlink:href="#DejaVuSans-48"/>
       <use x="159.033203" xlink:href="#DejaVuSans-48"/>
       <use x="222.65625" xlink:href="#DejaVuSans-49"/>
      </g>
     </g>
    </g>
    <g id="ytick_3">
     <g id="line2d_29">
      <g>
       <use style="stroke:#000000;stroke-width:0.5;" x="72" xlink:href="#m62eedd48ec" y="273.6"/>
      </g>
     </g>
     <g id="line2d_30">
      <g>
       <use style="stroke:#000000;stroke-width:0.5;" x="518.4" xlink:href="#m66db951475" y="273.6"/>
      </g>
     </g>
     <g id="text_13">
      <!-- 0.002 -->
      <g transform="translate(33.64625 276.91125)scale(0.12 -0.12)">
       <use xlink:href="#DejaVuSans-48"/>
       <use x="63.623047" xlink:href="#DejaVuSans-46"/>
       <use x="95.410156" xlink:href="#DejaVuSans-48"/>
       <use x="159.033203" xlink:href="#DejaVuSans-48"/>
       <use x="222.65625" xlink:href="#DejaVuSans-50"/>
      </g>
     </g>
    </g>
    <g id="ytick_4">
     <g id="line2d_31">
      <g>
       <use style="stroke:#000000;stroke-width:0.5;" x="72" xlink:href="#m62eedd48ec" y="216"/>
      </g>
     </g>
     <g id="line2d_32">
      <g>
       <use style="stroke:#000000;stroke-width:0.5;" x="518.4" xlink:href="#m66db951475" y="216"/>
      </g>
     </g>
     <g id="text_14">
      <!-- 0.003 -->
      <g transform="translate(33.64625 219.31125)scale(0.12 -0.12)">
       <use xlink:href="#DejaVuSans-48"/>
       <use x="63.623047" xlink:href="#DejaVuSans-46"/>
       <use x="95.410156" xlink:href="#DejaVuSans-48"/>
       <use x="159.033203" xlink:href="#DejaVuSans-48"/>
       <use x="222.65625" xlink:href="#DejaVuSans-51"/>
      </g>
     </g>
    </g>
    <g id="ytick_5">
     <g id="line2d_33">
      <g>
       <use style="stroke:#000000;stroke-width:0.5;" x="72" xlink:href="#m62eedd48ec" y="158.4"/>
      </g>
     </g>
     <g id="line2d_34">
      <g>
       <use style="stroke:#000000;stroke-width:0.5;" x="518.4" xlink:href="#m66db951475" y="158.4"/>
      </g>
     </g>
     <g id="text_15">
      <!-- 0.004 -->
      <g transform="translate(33.64625 161.71125)scale(0.12 -0.12)">
       <use xlink:href="#DejaVuSans-48"/>
       <use x="63.623047" xlink:href="#DejaVuSans-46"/>
       <use x="95.410156" xlink:href="#DejaVuSans-48"/>
       <use x="159.033203" xlink:href="#DejaVuSans-48"/>
       <use x="222.65625" xlink:href="#DejaVuSans-52"/>
      </g>
     </g>
    </g>
    <g id="ytick_6">
     <g id="line2d_35">
      <g>
       <use style="stroke:#000000;stroke-width:0.5;" x="72" xlink:href="#m62eedd48ec" y="100.8"/>
      </g>
     </g>
     <g id="line2d_36">
      <g>
       <use style="stroke:#000000;stroke-width:0.5;" x="518.4" xlink:href="#m66db951475" y="100.8"/>
      </g>
     </g>
     <g id="text_16">
      <!-- 0.005 -->
      <g transform="translate(33.64625 104.11125)scale(0.12 -0.12)">
       <use xlink:href="#DejaVuSans-48"/>
       <use x="63.623047" xlink:href="#DejaVuSans-46"/>
       <use x="95.410156" xlink:href="#DejaVuSans-48"/>
       <use x="159.033203" xlink:href="#DejaVuSans-48"/>
       <use x="222.65625" xlink:href="#DejaVuSans-53"/>
      </g>
     </g>
    </g>
    <g id="ytick_7">
     <g id="line2d_37">
      <g>
       <use style="stroke:#000000;stroke-width:0.5;" x="72" xlink:href="#m62eedd48ec" y="43.2"/>
      </g>
     </g>
     <g id="line2d_38">
      <g>
       <use style="stroke:#000000;stroke-width:0.5;" x="518.4" xlink:href="#m66db951475" y="43.2"/>
      </g>
     </g>
     <g id="text_17">
      <!-- 0.006 -->
      <g transform="translate(33.64625 46.51125)scale(0.12 -0.12)">
       <use xlink:href="#DejaVuSans-48"/>
       <use x="63.623047" xlink:href="#DejaVuSans-46"/>
       <use x="95.410156" xlink:href="#DejaVuSans-48"/>
       <use x="159.033203" xlink:href="#DejaVuSans-48"/>
       <use x="222.65625" xlink:href="#DejaVuSans-54"/>
      </g>
     </g>
    </g>
    <g id="text_18">
     <!-- Speed distribution -->
     <g transform="translate(26.150625 270.909375)rotate(-90)scale(0.12 -0.12)">
      <defs>
       <path id="DejaVuSans-32"/>
       <path d="M 9.421875 54.6875 
L 18.40625 54.6875 
L 18.40625 0 
L 9.421875 0 
z
M 9.421875 75.984375 
L 18.40625 75.984375 
L 18.40625 64.59375 
L 9.421875 64.59375 
z
" id="DejaVuSans-105"/>
       <path d="M 44.28125 53.078125 
L 44.28125 44.578125 
Q 40.484375 46.53125 36.375 47.5 
Q 32.28125 48.484375 27.875 48.484375 
Q 21.1875 48.484375 17.84375 46.4375 
Q 14.5 44.390625 14.5 40.28125 
Q 14.5 37.15625 16.890625 35.375 
Q 19.28125 33.59375 26.515625 31.984375 
L 29.59375 31.296875 
Q 39.15625 29.25 43.1875 25.515625 
Q 47.21875 21.78125 47.21875 15.09375 
Q 47.21875 7.46875 41.1875 3.015625 
Q 35.15625 -1.421875 24.609375 -1.421875 
Q 20.21875 -1.421875 15.453125 -0.5625 
Q 10.6875 0.296875 5.421875 2 
L 5.421875 11.28125 
Q 10.40625 8.6875 15.234375 7.390625 
Q 20.0625 6.109375 24.8125 6.109375 
Q 31.15625 6.109375 34.5625 8.28125 
Q 37.984375 10.453125 37.984375 14.40625 
Q 37.984375 18.0625 35.515625 20.015625 
Q 33.0625 21.96875 24.703125 23.78125 
L 21.578125 24.515625 
Q 13.234375 26.265625 9.515625 29.90625 
Q 5.8125 33.546875 5.8125 39.890625 
Q 5.8125 47.609375 11.28125 51.796875 
Q 16.75 56 26.8125 56 
Q 31.78125 56 36.171875 55.265625 
Q 40.578125 54.546875 44.28125 53.078125 
z
" id="DejaVuSans-115"/>
       <path d="M 18.3125 70.21875 
L 18.3125 54.6875 
L 36.8125 54.6875 
L 36.8125 47.703125 
L 18.3125 47.703125 
L 18.3125 18.015625 
Q 18.3125 11.328125 20.140625 9.421875 
Q 21.96875 7.515625 27.59375 7.515625 
L 36.8125 7.515625 
L 36.8125 0 
L 27.59375 0 
Q 17.1875 0 13.234375 3.875 
Q 9.28125 7.765625 9.28125 18.015625 
L 9.28125 47.703125 
L 2.6875 47.703125 
L 2.6875 54.6875 
L 9.28125 54.6875 
L 9.28125 70.21875 
z
" id="DejaVuSans-116"/>
       <path d="M 41.109375 46.296875 
Q 39.59375 47.171875 37.8125 47.578125 
Q 36.03125 48 33.890625 48 
Q 26.265625 48 22.1875 43.046875 
Q 18.109375 38.09375 18.109375 28.8125 
L 18.109375 0 
L 9.078125 0 
L 9.078125 54.6875 
L 18.109375 54.6875 
L 18.109375 46.1875 
Q 20.953125 51.171875 25.484375 53.578125 
Q 30.03125 56 36.53125 56 
Q 37.453125 56 38.578125 55.875 
Q 39.703125 55.765625 41.0625 55.515625 
z
" id="DejaVuSans-114"/>
       <path d="M 48.6875 27.296875 
Q 48.6875 37.203125 44.609375 42.84375 
Q 40.53125 48.484375 33.40625 48.484375 
Q 26.265625 48.484375 22.1875 42.84375 
Q 18.109375 37.203125 18.109375 27.296875 
Q 18.109375 17.390625 22.1875 11.75 
Q 26.265625 6.109375 33.40625 6.109375 
Q 40.53125 6.109375 44.609375 11.75 
Q 48.6875 17.390625 48.6875 27.296875 
z
M 18.109375 46.390625 
Q 20.953125 51.265625 25.265625 53.625 
Q 29.59375 56 35.59375 56 
Q 45.5625 56 51.78125 48.09375 
Q 58.015625 40.1875 58.015625 27.296875 
Q 58.015625 14.40625 51.78125 6.484375 
Q 45.5625 -1.421875 35.59375 -1.421875 
Q 29.59375 -1.421875 25.265625 0.953125 
Q 20.953125 3.328125 18.109375 8.203125 
L 18.109375 0 
L 9.078125 0 
L 9.078125 75.984375 
L 18.109375 75.984375 
z
" id="DejaVuSans-98"/>
       <path d="M 8.5 21.578125 
L 8.5 54.6875 
L 17.484375 54.6875 
L 17.484375 21.921875 
Q 17.484375 14.15625 20.5 10.265625 
Q 23.53125 6.390625 29.59375 6.390625 
Q 36.859375 6.390625 41.078125 11.03125 
Q 45.3125 15.671875 45.3125 23.6875 
L 45.3125 54.6875 
L 54.296875 54.6875 
L 54.296875 0 
L 45.3125 0 
L 45.3125 8.40625 
Q 42.046875 3.421875 37.71875 1 
Q 33.40625 -1.421875 27.6875 -1.421875 
Q 18.265625 -1.421875 13.375 4.4375 
Q 8.5 10.296875 8.5 21.578125 
z
M 31.109375 56 
z
" id="DejaVuSans-117"/>
       <path d="M 30.609375 48.390625 
Q 23.390625 48.390625 19.1875 42.75 
Q 14.984375 37.109375 14.984375 27.296875 
Q 14.984375 17.484375 19.15625 11.84375 
Q 23.34375 6.203125 30.609375 6.203125 
Q 37.796875 6.203125 41.984375 11.859375 
Q 46.1875 17.53125 46.1875 27.296875 
Q 46.1875 37.015625 41.984375 42.703125 
Q 37.796875 48.390625 30.609375 48.390625 
z
M 30.609375 56 
Q 42.328125 56 49.015625 48.375 
Q 55.71875 40.765625 55.71875 27.296875 
Q 55.71875 13.875 49.015625 6.21875 
Q 42.328125 -1.421875 30.609375 -1.421875 
Q 18.84375 -1.421875 12.171875 6.21875 
Q 5.515625 13.875 5.515625 27.296875 
Q 5.515625 40.765625 12.171875 48.375 
Q 18.84375 56 30.609375 56 
z
" id="DejaVuSans-111"/>
       <path d="M 54.890625 33.015625 
L 54.890625 0 
L 45.90625 0 
L 45.90625 32.71875 
Q 45.90625 40.484375 42.875 44.328125 
Q 39.84375 48.1875 33.796875 48.1875 
Q 26.515625 48.1875 22.3125 43.546875 
Q 18.109375 38.921875 18.109375 30.90625 
L 18.109375 0 
L 9.078125 0 
L 9.078125 54.6875 
L 18.109375 54.6875 
L 18.109375 46.1875 
Q 21.34375 51.125 25.703125 53.5625 
Q 30.078125 56 35.796875 56 
Q 45.21875 56 50.046875 50.171875 
Q 54.890625 44.34375 54.890625 33.015625 
z
" id="DejaVuSans-110"/>
      </defs>
      <use xlink:href="#DejaVuSans-83"/>
      <use x="63.476562" xlink:href="#DejaVuSans-112"/>
      <use x="126.953125" xlink:href="#DejaVuSans-101"/>
      <use x="188.476562" xlink:href="#DejaVuSans-101"/>
      <use x="250" xlink:href="#DejaVuSans-100"/>
      <use x="313.476562" xlink:href="#DejaVuSans-32"/>
      <use x="345.263672" xlink:href="#DejaVuSans-100"/>
      <use x="408.740234" xlink:href="#DejaVuSans-105"/>
      <use x="436.523438" xlink:href="#DejaVuSans-115"/>
      <use x="488.623047" xlink:href="#DejaVuSans-116"/>
      <use x="527.832031" xlink:href="#DejaVuSans-114"/>
      <use x="568.945312" xlink:href="#DejaVuSans-105"/>
      <use x="596.728516" xlink:href="#DejaVuSans-98"/>
      <use x="660.205078" xlink:href="#DejaVuSans-117"/>
      <use x="723.583984" xlink:href="#DejaVuSans-116"/>
      <use x="762.792969" xlink:href="#DejaVuSans-105"/>
      <use x="790.576172" xlink:href="#DejaVuSans-111"/>
      <use x="851.757812" xlink:href="#DejaVuSans-110"/>
     </g>
    </g>
   </g>
   <g id="legend_1">
    <g id="patch_7">
     <path d="M 401.56875 181.539 
L 511.2 181.539 
L 511.2 50.4 
L 401.56875 50.4 
z
" style="fill:#ffffff;stroke:#000000;stroke-linejoin:miter;"/>
    </g>
    <g id="line2d_39">
     <path d="M 411.64875 62.06175 
L 431.80875 62.06175 
" style="fill:none;stroke:#0000ff;stroke-linecap:square;"/>
    </g>
    <g id="line2d_40"/>
    <g id="text_19">
     <!-- T=100K -->
     <g transform="translate(447.64875 67.10175)scale(0.144 -0.144)">
      <defs>
       <path d="M -0.296875 72.90625 
L 61.375 72.90625 
L 61.375 64.59375 
L 35.5 64.59375 
L 35.5 0 
L 25.59375 0 
L 25.59375 64.59375 
L -0.296875 64.59375 
z
" id="DejaVuSans-84"/>
       <path d="M 10.59375 45.40625 
L 73.1875 45.40625 
L 73.1875 37.203125 
L 10.59375 37.203125 
z
M 10.59375 25.484375 
L 73.1875 25.484375 
L 73.1875 17.1875 
L 10.59375 17.1875 
z
" id="DejaVuSans-61"/>
       <path d="M 9.8125 72.90625 
L 19.671875 72.90625 
L 19.671875 42.09375 
L 52.390625 72.90625 
L 65.09375 72.90625 
L 28.90625 38.921875 
L 67.671875 0 
L 54.6875 0 
L 19.671875 35.109375 
L 19.671875 0 
L 9.8125 0 
z
" id="DejaVuSans-75"/>
      </defs>
      <use xlink:href="#DejaVuSans-84"/>
      <use x="61.083984" xlink:href="#DejaVuSans-61"/>
      <use x="144.873047" xlink:href="#DejaVuSans-49"/>
      <use x="208.496094" xlink:href="#DejaVuSans-48"/>
      <use x="272.119141" xlink:href="#DejaVuSans-48"/>
      <use x="335.742188" xlink:href="#DejaVuSans-75"/>
     </g>
    </g>
    <g id="line2d_41">
     <path d="M 411.64875 83.19825 
L 431.80875 83.19825 
" style="fill:none;stroke:#008000;stroke-linecap:square;"/>
    </g>
    <g id="line2d_42"/>
    <g id="text_20">
     <!-- T=175K -->
     <g transform="translate(447.64875 88.23825)scale(0.144 -0.144)">
      <use xlink:href="#DejaVuSans-84"/>
      <use x="61.083984" xlink:href="#DejaVuSans-61"/>
      <use x="144.873047" xlink:href="#DejaVuSans-49"/>
      <use x="208.496094" xlink:href="#DejaVuSans-55"/>
      <use x="272.119141" xlink:href="#DejaVuSans-53"/>
      <use x="335.742188" xlink:href="#DejaVuSans-75"/>
     </g>
    </g>
    <g id="line2d_43">
     <path d="M 411.64875 104.33475 
L 431.80875 104.33475 
" style="fill:none;stroke:#ff0000;stroke-linecap:square;"/>
    </g>
    <g id="line2d_44"/>
    <g id="text_21">
     <!-- T=250K -->
     <g transform="translate(447.64875 109.37475)scale(0.144 -0.144)">
      <use xlink:href="#DejaVuSans-84"/>
      <use x="61.083984" xlink:href="#DejaVuSans-61"/>
      <use x="144.873047" xlink:href="#DejaVuSans-50"/>
      <use x="208.496094" xlink:href="#DejaVuSans-53"/>
      <use x="272.119141" xlink:href="#DejaVuSans-48"/>
      <use x="335.742188" xlink:href="#DejaVuSans-75"/>
     </g>
    </g>
    <g id="line2d_45">
     <path d="M 411.64875 125.47125 
L 431.80875 125.47125 
" style="fill:none;stroke:#00bfbf;stroke-linecap:square;"/>
    </g>
    <g id="line2d_46"/>
    <g id="text_22">
     <!-- T=325K -->
     <g transform="translate(447.64875 130.51125)scale(0.144 -0.144)">
      <use xlink:href="#DejaVuSans-84"/>
      <use x="61.083984" xlink:href="#DejaVuSans-61"/>
      <use x="144.873047" xlink:href="#DejaVuSans-51"/>
      <use x="208.496094" xlink:href="#DejaVuSans-50"/>
      <use x="272.119141" xlink:href="#DejaVuSans-53"/>
      <use x="335.742188" xlink:href="#DejaVuSans-75"/>
     </g>
    </g>
    <g id="line2d_47">
     <path d="M 411.64875 146.60775 
L 431.80875 146.60775 
" style="fill:none;stroke:#bf00bf;stroke-linecap:square;"/>
    </g>
    <g id="line2d_48"/>
    <g id="text_23">
     <!-- T=400K -->
     <g transform="translate(447.64875 151.64775)scale(0.144 -0.144)">
      <use xlink:href="#DejaVuSans-84"/>
      <use x="61.083984" xlink:href="#DejaVuSans-61"/>
      <use x="144.873047" xlink:href="#DejaVuSans-52"/>
      <use x="208.496094" xlink:href="#DejaVuSans-48"/>
      <use x="272.119141" xlink:href="#DejaVuSans-48"/>
      <use x="335.742188" xlink:href="#DejaVuSans-75"/>
     </g>
    </g>
    <g id="line2d_49">
     <path d="M 411.64875 167.74425 
L 431.80875 167.74425 
" style="fill:none;stroke:#bfbf00;stroke-linecap:square;"/>
    </g>
    <g id="line2d_50"/>
    <g id="text_24">
     <!-- T=475K -->
     <g transform="translate(447.64875 172.78425)scale(0.144 -0.144)">
      <use xlink:href="#DejaVuSans-84"/>
      <use x="61.083984" xlink:href="#DejaVuSans-61"/>
      <use x="144.873047" xlink:href="#DejaVuSans-52"/>
      <use x="208.496094" xlink:href="#DejaVuSans-55"/>
      <use x="272.119141" xlink:href="#DejaVuSans-53"/>
      <use x="335.742188" xlink:href="#DejaVuSans-75"/>
     </g>
    </g>
   </g>
  </g>
 </g>
 <defs>
  <clipPath id="pa60f4e55a8">
   <rect height="345.6" width="446.4" x="72" y="43.2"/>
  </clipPath>
 </defs>
</svg>
