<?xml version="1.0" encoding="utf-8" standalone="no"?>
<!DOCTYPE svg PUBLIC "-//W3C//DTD SVG 1.1//EN"
  "http://www.w3.org/Graphics/SVG/1.1/DTD/svg11.dtd">
<svg xmlns:xlink="http://www.w3.org/1999/xlink" width="299.009375pt" height="257.958962pt" viewBox="0 0 299.009375 257.958962" xmlns="http://www.w3.org/2000/svg" version="1.1">
 <metadata>
  <rdf:RDF xmlns:dc="http://purl.org/dc/elements/1.1/" xmlns:cc="http://creativecommons.org/ns#" xmlns:rdf="http://www.w3.org/1999/02/22-rdf-syntax-ns#">
   <cc:Work>
    <dc:type rdf:resource="http://purl.org/dc/dcmitype/StillImage"/>
    <dc:date>2022-07-25T08:42:26.055598</dc:date>
    <dc:format>image/svg+xml</dc:format>
    <dc:creator>
     <cc:Agent>
      <dc:title>Matplotlib v3.5.2, https://matplotlib.org/</dc:title>
     </cc:Agent>
    </dc:creator>
   </cc:Work>
  </rdf:RDF>
 </metadata>
 <defs>
  <style type="text/css">*{stroke-linejoin: round; stroke-linecap: butt}</style>
 </defs>
 <g id="figure_1">
  <g id="patch_1">
   <path d="M 0 257.958962 
L 299.009375 257.958962 
L 299.009375 0 
L 0 0 
L 0 257.958962 
z
" style="fill: none"/>
  </g>
  <g id="axes_1">
   <g id="patch_2">
    <path d="M 40.709375 212.660213 
L 291.809375 212.660213 
L 291.809375 20.837812 
L 40.709375 20.837812 
L 40.709375 212.660213 
z
" style="fill: none"/>
   </g>
   <g id="matplotlib.axis_1">
    <g id="xtick_1">
     <g id="line2d_1">
      <defs>
       <path id="m86dd40ed31" d="M 0 0 
L 0 3.5 
" style="stroke: #000000; stroke-width: 0.8"/>
      </defs>
      <g>
       <use xlink:href="#m86dd40ed31" x="52.123011" y="212.660213" style="stroke: #000000; stroke-width: 0.8"/>
      </g>
     </g>
     <g id="text_1">
      <!-- $\mathdefault{0}$ -->
      <g transform="translate(47.643011 230.298025)">
       <text>
        <tspan style="font: 14px 'DejaVu Sans'" x="0" y="-0.609375">0</tspan>
       </text>
      </g>
     </g>
    </g>
    <g id="xtick_2">
     <g id="line2d_2">
      <g>
       <use xlink:href="#m86dd40ed31" x="109.913575" y="212.660213" style="stroke: #000000; stroke-width: 0.8"/>
      </g>
     </g>
     <g id="text_2">
      <!-- $\mathdefault{2}$ -->
      <g transform="translate(105.433575 230.298025)">
       <text>
        <tspan style="font: 14px 'DejaVu Sans'" x="0" y="-0.609375">2</tspan>
       </text>
      </g>
     </g>
    </g>
    <g id="xtick_3">
     <g id="line2d_3">
      <g>
       <use xlink:href="#m86dd40ed31" x="167.704139" y="212.660213" style="stroke: #000000; stroke-width: 0.8"/>
      </g>
     </g>
     <g id="text_3">
      <!-- $\mathdefault{4}$ -->
      <g transform="translate(163.224139 230.298025)">
       <text>
        <tspan style="font: 14px 'DejaVu Sans'" x="0" y="-0.796875">4</tspan>
       </text>
      </g>
     </g>
    </g>
    <g id="xtick_4">
     <g id="line2d_4">
      <g>
       <use xlink:href="#m86dd40ed31" x="225.494703" y="212.660213" style="stroke: #000000; stroke-width: 0.8"/>
      </g>
     </g>
     <g id="text_4">
      <!-- $\mathdefault{6}$ -->
      <g transform="translate(221.014703 230.298025)">
       <text>
        <tspan style="font: 14px 'DejaVu Sans'" x="0" y="-0.609375">6</tspan>
       </text>
      </g>
     </g>
    </g>
    <g id="xtick_5">
     <g id="line2d_5">
      <g>
       <use xlink:href="#m86dd40ed31" x="283.285267" y="212.660213" style="stroke: #000000; stroke-width: 0.8"/>
      </g>
     </g>
     <g id="text_5">
      <!-- $\mathdefault{8}$ -->
      <g transform="translate(278.805267 230.298025)">
       <text>
        <tspan style="font: 14px 'DejaVu Sans'" x="0" y="-0.609375">8</tspan>
       </text>
      </g>
     </g>
    </g>
    <g id="text_6">
     <text style="font: 14px 'sans-serif'; text-anchor: middle" x="166.259375" y="247.8474" transform="rotate(-0, 166.259375, 247.8474)">Speed</text>
    </g>
    <g id="text_7">
     <!-- $\times\mathdefault{10^{2}}\mathdefault{}$ -->
     <g transform="translate(255.409375 246.8474)">
      <text>
       <tspan style="font: 14px 'DejaVu Sans'" x="0 11.730469 20.637695" y="-0.3671875">×10</tspan>
       <tspan style="font: 9.8px 'DejaVu Sans'" x="29.678906" y="-5.7265625">2</tspan>
      </text>
     </g>
    </g>
   </g>
   <g id="matplotlib.axis_2">
    <g id="ytick_1">
     <g id="line2d_6">
      <defs>
       <path id="mc68c08f921" d="M 0 0 
L -3.5 0 
" style="stroke: #000000; stroke-width: 0.8"/>
      </defs>
      <g>
       <use xlink:href="#mc68c08f921" x="40.709375" y="203.941012" style="stroke: #000000; stroke-width: 0.8"/>
      </g>
     </g>
     <g id="text_8">
      <!-- $\mathdefault{0}$ -->
      <g transform="translate(24.749375 209.259919)">
       <text>
        <tspan style="font: 14px 'DejaVu Sans'" x="0" y="-0.609375">0</tspan>
       </text>
      </g>
     </g>
    </g>
    <g id="ytick_2">
     <g id="line2d_7">
      <g>
       <use xlink:href="#mc68c08f921" x="40.709375" y="145.18694" style="stroke: #000000; stroke-width: 0.8"/>
      </g>
     </g>
     <g id="text_9">
      <!-- $\mathdefault{2}$ -->
      <g transform="translate(24.749375 150.505847)">
       <text>
        <tspan style="font: 14px 'DejaVu Sans'" x="0" y="-0.609375">2</tspan>
       </text>
      </g>
     </g>
    </g>
    <g id="ytick_3">
     <g id="line2d_8">
      <g>
       <use xlink:href="#mc68c08f921" x="40.709375" y="86.432868" style="stroke: #000000; stroke-width: 0.8"/>
      </g>
     </g>
     <g id="text_10">
      <!-- $\mathdefault{4}$ -->
      <g transform="translate(24.749375 91.751775)">
       <text>
        <tspan style="font: 14px 'DejaVu Sans'" x="0" y="-0.796875">4</tspan>
       </text>
      </g>
     </g>
    </g>
    <g id="ytick_4">
     <g id="line2d_9">
      <g>
       <use xlink:href="#mc68c08f921" x="40.709375" y="27.678796" style="stroke: #000000; stroke-width: 0.8"/>
      </g>
     </g>
     <g id="text_11">
      <!-- $\mathdefault{6}$ -->
      <g transform="translate(24.749375 32.997702)">
       <text>
        <tspan style="font: 14px 'DejaVu Sans'" x="0" y="-0.609375">6</tspan>
       </text>
      </g>
     </g>
    </g>
    <g id="text_12">
     <text style="font: 14px 'sans-serif'; text-anchor: middle" x="17.837813" y="116.749012" transform="rotate(-90, 17.837813, 116.749012)">Speed distribution</text>
    </g>
    <g id="text_13">
     <!-- $\times\mathdefault{10^{−3}}\mathdefault{}$ -->
     <g transform="translate(40.709375 17.837812)">
      <text>
       <tspan style="font: 14px 'DejaVu Sans'" x="0 11.730469 20.637695" y="-0.3671875">×10</tspan>
       <tspan style="font: 9.8px 'DejaVu Sans'" x="29.678906 37.890234" y="-5.7265625">−3</tspan>
      </text>
     </g>
    </g>
   </g>
   <g id="line2d_10">
    <path d="M 52.123011 203.941012 
L 55.01254 201.529999 
L 57.902068 194.44374 
L 60.791596 183.111449 
L 63.681124 168.212422 
L 66.570652 150.625494 
L 69.460181 131.364957 
L 72.349709 111.508732 
L 75.239237 92.125056 
L 78.128765 74.203805 
L 81.018293 58.597804 
L 83.907821 45.978212 
L 86.79735 36.806495 
L 89.686878 31.323812 
L 92.576406 29.557013 
L 95.465934 31.339031 
L 98.355462 36.340471 
L 101.244991 44.108553 
L 104.134519 54.109441 
L 107.024047 65.770233 
L 109.913575 78.517438 
L 112.803103 91.80956 
L 115.692632 105.162294 
L 118.58216 118.165689 
L 121.471688 130.493458 
L 124.361216 141.905192 
L 127.250744 152.2427 
L 130.140273 161.421933 
L 133.029801 169.421987 
L 135.919329 176.272608 
L 138.808857 182.041434 
L 141.698385 186.821899 
L 144.587914 190.722518 
L 147.477442 193.857925 
L 150.36697 196.341835 
L 153.256498 198.281911 
L 156.146026 199.776362 
L 159.035555 200.912017 
L 161.925083 201.763586 
L 164.814611 202.393814 
L 167.704139 202.854244 
L 170.593667 203.186365 
L 173.483195 203.422936 
L 176.372724 203.589362 
L 179.262252 203.705009 
L 182.15178 203.784397 
L 185.041308 203.838239 
L 187.930836 203.87432 
L 190.820365 203.898213 
L 193.709893 203.913849 
L 196.599421 203.923962 
L 199.488949 203.930428 
L 202.378477 203.934513 
L 205.268006 203.937065 
L 208.157534 203.938641 
L 211.047062 203.939604 
L 213.93659 203.940184 
L 216.826118 203.940531 
L 219.715647 203.940736 
L 222.605175 203.940855 
L 225.494703 203.940924 
L 228.384231 203.940963 
L 231.273759 203.940985 
L 234.163288 203.940998 
L 237.052816 203.941005 
L 239.942344 203.941008 
L 242.831872 203.94101 
L 245.7214 203.941011 
L 248.610929 203.941012 
L 251.500457 203.941012 
L 254.389985 203.941012 
L 257.279513 203.941012 
L 260.169041 203.941012 
L 263.058569 203.941012 
L 265.948098 203.941012 
L 268.837626 203.941012 
L 271.727154 203.941012 
L 274.616682 203.941012 
L 277.50621 203.941012 
L 280.395739 203.941012 
" clip-path="url(#pd440e4bd0b)" style="fill: none; stroke: #001219; stroke-width: 1.5; stroke-linecap: square"/>
   </g>
   <g id="line2d_11">
    <path d="M 52.123011 203.941012 
L 55.01254 202.897268 
L 57.902068 199.802465 
L 60.791596 194.764304 
L 63.681124 187.957089 
L 66.570652 179.614213 
L 69.460181 170.018219 
L 72.349709 159.488953 
L 75.239237 148.370417 
L 78.128765 137.017006 
L 81.018293 125.779794 
L 83.907821 114.993528 
L 86.79735 104.964912 
L 89.686878 95.962668 
L 92.576406 88.209743 
L 95.465934 81.877906 
L 98.355462 77.084814 
L 101.244991 73.893526 
L 104.134519 72.314282 
L 107.024047 72.308304 
L 109.913575 73.79325 
L 112.803103 76.649931 
L 115.692632 80.729869 
L 118.58216 85.863252 
L 121.471688 91.866903 
L 124.361216 98.551892 
L 127.250744 105.7305 
L 130.140273 113.222297 
L 133.029801 120.859177 
L 135.919329 128.489275 
L 138.808857 135.979732 
L 141.698385 143.218352 
L 144.587914 150.114246 
L 147.477442 156.597582 
L 150.36697 162.618593 
L 153.256498 168.14599 
L 156.146026 173.164971 
L 159.035555 177.674949 
L 161.925083 181.687166 
L 164.814611 185.222298 
L 167.704139 188.308158 
L 170.593667 190.977578 
L 173.483195 193.266512 
L 176.372724 195.212403 
L 179.262252 196.852823 
L 182.15178 198.224393 
L 185.041308 199.361947 
L 187.930836 200.297952 
L 190.820365 201.062122 
L 193.709893 201.681215 
L 196.599421 202.178978 
L 199.488949 202.576195 
L 202.378477 202.890834 
L 205.268006 203.138239 
L 208.157534 203.331368 
L 211.047062 203.481048 
L 213.93659 203.596228 
L 216.826118 203.684235 
L 219.715647 203.75101 
L 222.605175 203.801321 
L 225.494703 203.838968 
L 228.384231 203.866944 
L 231.273759 203.887592 
L 234.163288 203.902729 
L 237.052816 203.91375 
L 239.942344 203.921721 
L 242.831872 203.927447 
L 245.7214 203.931534 
L 248.610929 203.934431 
L 251.500457 203.936471 
L 254.389985 203.937898 
L 257.279513 203.93889 
L 260.169041 203.939575 
L 263.058569 203.940045 
L 265.948098 203.940366 
L 268.837626 203.940583 
L 271.727154 203.940728 
L 274.616682 203.940826 
L 277.50621 203.940891 
L 280.395739 203.940934 
" clip-path="url(#pd440e4bd0b)" style="fill: none; stroke-dasharray: 5.55,2.4; stroke-dashoffset: 0; stroke: #005f73; stroke-width: 1.5"/>
   </g>
   <g id="line2d_12">
    <path d="M 52.123011 203.941012 
L 55.01254 203.329195 
L 57.902068 201.50871 
L 60.791596 198.524004 
L 63.681124 194.447645 
L 66.570652 189.378128 
L 69.460181 183.436909 
L 72.349709 176.764792 
L 75.239237 169.517796 
L 78.128765 161.862655 
L 81.018293 153.972106 
L 83.907821 146.02014 
L 86.79735 138.177364 
L 89.686878 130.606638 
L 92.576406 123.459109 
L 95.465934 116.870768 
L 98.355462 110.95961 
L 101.244991 105.823474 
L 104.134519 101.538577 
L 107.024047 98.158775 
L 109.913575 95.71551 
L 112.803103 94.218416 
L 115.692632 93.656503 
L 118.58216 93.999858 
L 121.471688 95.201753 
L 124.361216 97.201069 
L 127.250744 99.924926 
L 130.140273 103.291425 
L 133.029801 107.212392 
L 135.919329 111.596055 
L 138.808857 116.349555 
L 141.698385 121.38124 
L 144.587914 126.602697 
L 147.477442 131.93047 
L 150.36697 137.287462 
L 153.256498 142.604004 
L 156.146026 147.818597 
L 159.035555 152.878351 
L 161.925083 157.739134 
L 164.814611 162.365473 
L 167.704139 166.730238 
L 170.593667 170.814152 
L 173.483195 174.605155 
L 176.372724 178.097678 
L 179.262252 181.291846 
L 182.15178 184.192657 
L 185.041308 186.809157 
L 187.930836 189.153638 
L 190.820365 191.240879 
L 193.709893 193.087453 
L 196.599421 194.71109 
L 199.488949 196.130128 
L 202.378477 197.363038 
L 205.268006 198.428029 
L 208.157534 199.34273 
L 211.047062 200.123939 
L 213.93659 200.787446 
L 216.826118 201.347906 
L 219.715647 201.81877 
L 222.605175 202.21225 
L 225.494703 202.53933 
L 228.384231 202.809793 
L 231.273759 203.032284 
L 234.163288 203.214373 
L 237.052816 203.362638 
L 239.942344 203.482754 
L 242.831872 203.579577 
L 245.7214 203.657237 
L 248.610929 203.719218 
L 251.500457 203.768444 
L 254.389985 203.807349 
L 257.279513 203.837948 
L 260.169041 203.861897 
L 263.058569 203.880553 
L 265.948098 203.895015 
L 268.837626 203.906173 
L 271.727154 203.914742 
L 274.616682 203.921291 
L 277.50621 203.926273 
L 280.395739 203.930045 
" clip-path="url(#pd440e4bd0b)" style="fill: none; stroke-dasharray: 9.6,2.4,1.5,2.4; stroke-dashoffset: 0; stroke: #0a9396; stroke-width: 1.5"/>
   </g>
   <g id="line2d_13">
    <path d="M 52.123011 203.941012 
L 55.01254 203.528049 
L 57.902068 202.296935 
L 60.791596 200.270819 
L 63.681124 197.487675 
L 66.570652 193.999418 
L 69.460181 189.870697 
L 72.349709 185.177402 
L 75.239237 180.004935 
L 78.128765 174.446284 
L 81.018293 168.599963 
L 83.907821 162.567864 
L 86.79735 156.453093 
L 89.686878 150.357831 
L 92.576406 144.381286 
L 95.465934 138.617781 
L 98.355462 133.155021 
L 101.244991 128.072581 
L 104.134519 123.440644 
L 107.024047 119.319001 
L 109.913575 115.756339 
L 112.803103 112.789815 
L 115.692632 110.444909 
L 118.58216 108.735549 
L 121.471688 107.664483 
L 124.361216 107.223884 
L 127.250744 107.396144 
L 130.140273 108.154835 
L 133.029801 109.465798 
L 135.919329 111.288326 
L 138.808857 113.576394 
L 141.698385 116.27992 
L 144.587914 119.346008 
L 147.477442 122.720149 
L 150.36697 126.347357 
L 153.256498 130.173216 
L 156.146026 134.144815 
L 159.035555 138.211572 
L 161.925083 142.325921 
L 164.814611 146.443874 
L 167.704139 150.525451 
L 170.593667 154.534975 
L 173.483195 158.441256 
L 176.372724 162.217652 
L 179.262252 165.842038 
L 182.15178 169.296679 
L 185.041308 172.568031 
L 187.930836 175.646482 
L 190.820365 178.526044 
L 193.709893 181.204006 
L 196.599421 183.680574 
L 199.488949 185.958491 
L 202.378477 188.042664 
L 205.268006 189.939793 
L 208.157534 191.658022 
L 211.047062 193.206603 
L 213.93659 194.595596 
L 216.826118 195.835586 
L 219.715647 196.937444 
L 222.605175 197.912108 
L 225.494703 198.770406 
L 228.384231 199.522898 
L 231.273759 200.179758 
L 234.163288 200.750679 
L 237.052816 201.244799 
L 239.942344 201.670655 
L 242.831872 202.036157 
L 245.7214 202.348568 
L 248.610929 202.614514 
L 251.500457 202.839993 
L 254.389985 203.030399 
L 257.279513 203.190548 
L 260.169041 203.324719 
L 263.058569 203.436687 
L 265.948098 203.529764 
L 268.837626 203.606838 
L 271.727154 203.670416 
L 274.616682 203.722662 
L 277.50621 203.765433 
L 280.395739 203.800316 
" clip-path="url(#pd440e4bd0b)" style="fill: none; stroke-dasharray: 1.5,2.475; stroke-dashoffset: 0; stroke: #94d2bd; stroke-width: 1.5"/>
   </g>
   <g id="line2d_14">
    <path d="M 52.123011 203.941012 
L 55.01254 203.638478 
L 57.902068 202.735506 
L 60.791596 201.2459 
L 63.681124 199.192376 
L 66.570652 196.606126 
L 69.460181 193.526231 
L 72.349709 189.998921 
L 75.239237 186.076717 
L 78.128765 181.81746 
L 81.018293 177.283253 
L 83.907821 172.539346 
L 86.79735 167.652985 
L 89.686878 162.692242 
L 92.576406 157.724872 
L 95.465934 152.817193 
L 98.355462 148.033034 
L 101.244991 143.432763 
L 104.134519 139.072409 
L 107.024047 135.002896 
L 109.913575 131.269408 
L 112.803103 127.910877 
L 115.692632 124.959612 
L 118.58216 122.441069 
L 121.471688 120.373754 
L 124.361216 118.769256 
L 127.250744 117.632412 
L 130.140273 116.96158 
L 133.029801 116.749013 
L 135.919329 116.981322 
L 138.808857 117.640022 
L 141.698385 118.702116 
L 144.587914 120.140742 
L 147.477442 121.925831 
L 150.36697 124.024783 
L 153.256498 126.403137 
L 156.146026 129.025227 
L 159.035555 131.854803 
L 161.925083 134.855623 
L 164.814611 137.991987 
L 167.704139 141.229225 
L 170.593667 144.534123 
L 173.483195 147.875286 
L 176.372724 151.223437 
L 179.262252 154.551653 
L 182.15178 157.835541 
L 185.041308 161.053351 
L 187.930836 164.18603 
L 190.820365 167.217235 
L 193.709893 170.133289 
L 196.599421 172.923102 
L 199.488949 175.578055 
L 202.378477 178.091856 
L 205.268006 180.460379 
L 208.157534 182.681473 
L 211.047062 184.754774 
L 213.93659 186.6815 
L 216.826118 188.464251 
L 219.715647 190.10681 
L 222.605175 191.613945 
L 225.494703 192.991223 
L 228.384231 194.24484 
L 231.273759 195.381456 
L 234.163288 196.408044 
L 237.052816 197.331765 
L 239.942344 198.159844 
L 242.831872 198.899469 
L 245.7214 199.557705 
L 248.610929 200.141424 
L 251.500457 200.657238 
L 254.389985 201.111462 
L 257.279513 201.510073 
L 260.169041 201.858687 
L 263.058569 202.162548 
L 265.948098 202.426515 
L 268.837626 202.655065 
L 271.727154 202.852299 
L 274.616682 203.021954 
L 277.50621 203.167413 
L 280.395739 203.291726 
" clip-path="url(#pd440e4bd0b)" style="fill: none; stroke: #e9d8a6; stroke-width: 1.5; stroke-linecap: square"/>
   </g>
   <g id="line2d_15">
    <path d="M 52.123011 203.941012 
L 55.01254 203.707176 
L 57.902068 203.008682 
L 60.791596 201.854528 
L 63.681124 200.259547 
L 66.570652 198.244173 
L 69.460181 195.834112 
L 72.349709 193.059934 
L 75.239237 189.956591 
L 78.128765 186.562868 
L 81.018293 182.920787 
L 83.907821 179.074957 
L 86.79735 175.071908 
L 89.686878 170.959392 
L 92.576406 166.785695 
L 95.465934 162.598943 
L 98.355462 158.44644 
L 101.244991 154.374021 
L 104.134519 150.425465 
L 107.024047 146.641942 
L 109.913575 143.061533 
L 112.803103 139.718802 
L 115.692632 136.644448 
L 118.58216 133.865022 
L 121.471688 131.402734 
L 124.361216 129.275315 
L 127.250744 127.495972 
L 130.140273 126.073409 
L 133.029801 125.01191 
L 135.919329 124.311497 
L 138.808857 123.968135 
L 141.698385 123.973996 
L 144.587914 124.31776 
L 147.477442 124.984957 
L 150.36697 125.958332 
L 153.256498 127.218232 
L 156.146026 128.743007 
L 159.035555 130.50941 
L 161.925083 132.493002 
L 164.814611 134.668536 
L 167.704139 137.01034 
L 170.593667 139.492666 
L 173.483195 142.090021 
L 176.372724 144.777469 
L 179.262252 147.530902 
L 182.15178 150.327271 
L 185.041308 153.144792 
L 187.930836 155.96311 
L 190.820365 158.763431 
L 193.709893 161.528619 
L 196.599421 164.243261 
L 199.488949 166.893702 
L 202.378477 169.468049 
L 205.268006 171.956155 
L 208.157534 174.349572 
L 211.047062 176.641492 
L 213.93659 178.826664 
L 216.826118 180.901305 
L 219.715647 182.862995 
L 222.605175 184.710561 
L 225.494703 186.443963 
L 228.384231 188.064175 
L 231.273759 189.573061 
L 234.163288 190.973254 
L 237.052816 192.268046 
L 239.942344 193.46127 
L 242.831872 194.557195 
L 245.7214 195.560429 
L 248.610929 196.475827 
L 251.500457 197.308407 
L 254.389985 198.063271 
L 257.279513 198.745544 
L 260.169041 199.360314 
L 263.058569 199.912578 
L 265.948098 200.407203 
L 268.837626 200.848892 
L 271.727154 201.242152 
L 274.616682 201.591276 
L 277.50621 201.900324 
L 280.395739 202.173118 
" clip-path="url(#pd440e4bd0b)" style="fill: none; stroke-dasharray: 5.55,2.4; stroke-dashoffset: 0; stroke: #ee9b00; stroke-width: 1.5"/>
   </g>
   <g id="patch_3">
    <path d="M 40.709375 212.660213 
L 40.709375 20.837813 
" style="fill: none; stroke: #000000; stroke-width: 0.8; stroke-linejoin: miter; stroke-linecap: square"/>
   </g>
   <g id="patch_4">
    <path d="M 291.809375 212.660213 
L 291.809375 20.837813 
" style="fill: none; stroke: #000000; stroke-width: 0.8; stroke-linejoin: miter; stroke-linecap: square"/>
   </g>
   <g id="patch_5">
    <path d="M 40.709375 212.660213 
L 291.809375 212.660213 
" style="fill: none; stroke: #000000; stroke-width: 0.8; stroke-linejoin: miter; stroke-linecap: square"/>
   </g>
   <g id="patch_6">
    <path d="M 40.709375 20.837812 
L 291.809375 20.837812 
" style="fill: none; stroke: #000000; stroke-width: 0.8; stroke-linejoin: miter; stroke-linecap: square"/>
   </g>
   <g id="legend_1">
    <g id="line2d_16">
     <path d="M 183.823438 39.175625 
L 197.823438 39.175625 
L 211.823438 39.175625 
" style="fill: none; stroke: #001219; stroke-width: 1.5; stroke-linecap: square"/>
    </g>
    <g id="text_14">
     <text style="font: 14px 'sans-serif'; text-anchor: start" x="223.023438" y="44.075625" transform="rotate(-0, 223.023438, 44.075625)">T=100K</text>
    </g>
    <g id="line2d_17">
     <path d="M 183.823438 59.725 
L 197.823438 59.725 
L 211.823438 59.725 
" style="fill: none; stroke-dasharray: 5.55,2.4; stroke-dashoffset: 0; stroke: #005f73; stroke-width: 1.5"/>
    </g>
    <g id="text_15">
     <text style="font: 14px 'sans-serif'; text-anchor: start" x="223.023438" y="64.625" transform="rotate(-0, 223.023438, 64.625)">T=175K</text>
    </g>
    <g id="line2d_18">
     <path d="M 183.823438 80.274375 
L 197.823438 80.274375 
L 211.823438 80.274375 
" style="fill: none; stroke-dasharray: 9.6,2.4,1.5,2.4; stroke-dashoffset: 0; stroke: #0a9396; stroke-width: 1.5"/>
    </g>
    <g id="text_16">
     <text style="font: 14px 'sans-serif'; text-anchor: start" x="223.023438" y="85.174375" transform="rotate(-0, 223.023438, 85.174375)">T=250K</text>
    </g>
    <g id="line2d_19">
     <path d="M 183.823438 100.82375 
L 197.823438 100.82375 
L 211.823438 100.82375 
" style="fill: none; stroke-dasharray: 1.5,2.475; stroke-dashoffset: 0; stroke: #94d2bd; stroke-width: 1.5"/>
    </g>
    <g id="text_17">
     <text style="font: 14px 'sans-serif'; text-anchor: start" x="223.023438" y="105.72375" transform="rotate(-0, 223.023438, 105.72375)">T=325K</text>
    </g>
    <g id="line2d_20">
     <path d="M 183.823438 121.373125 
L 197.823438 121.373125 
L 211.823438 121.373125 
" style="fill: none; stroke: #e9d8a6; stroke-width: 1.5; stroke-linecap: square"/>
    </g>
    <g id="text_18">
     <text style="font: 14px 'sans-serif'; text-anchor: start" x="223.023438" y="126.273125" transform="rotate(-0, 223.023438, 126.273125)">T=400K</text>
    </g>
    <g id="line2d_21">
     <path d="M 183.823438 141.9225 
L 197.823438 141.9225 
L 211.823438 141.9225 
" style="fill: none; stroke-dasharray: 5.55,2.4; stroke-dashoffset: 0; stroke: #ee9b00; stroke-width: 1.5"/>
    </g>
    <g id="text_19">
     <text style="font: 14px 'sans-serif'; text-anchor: start" x="223.023438" y="146.8225" transform="rotate(-0, 223.023438, 146.8225)">T=475K</text>
    </g>
   </g>
  </g>
 </g>
 <defs>
  <clipPath id="pd440e4bd0b">
   <rect x="40.709375" y="20.837812" width="251.1" height="191.8224"/>
  </clipPath>
 </defs>
</svg>
