<?xml version="1.0" encoding="utf-8" standalone="no"?>
<!DOCTYPE svg PUBLIC "-//W3C//DTD SVG 1.1//EN"
  "http://www.w3.org/Graphics/SVG/1.1/DTD/svg11.dtd">
<!-- Created with matplotlib (https://matplotlib.org/) -->
<svg height="254.222163pt" version="1.1" viewBox="0 0 299.009375 254.222163" width="299.009375pt" xmlns="http://www.w3.org/2000/svg" xmlns:xlink="http://www.w3.org/1999/xlink">
 <metadata>
  <rdf:RDF xmlns:cc="http://creativecommons.org/ns#" xmlns:dc="http://purl.org/dc/elements/1.1/" xmlns:rdf="http://www.w3.org/1999/02/22-rdf-syntax-ns#">
   <cc:Work>
    <dc:type rdf:resource="http://purl.org/dc/dcmitype/StillImage"/>
    <dc:date>2022-07-25T06:19:16.125985</dc:date>
    <dc:format>image/svg+xml</dc:format>
    <dc:creator>
     <cc:Agent>
      <dc:title>Matplotlib v3.3.2, https://matplotlib.org/</dc:title>
     </cc:Agent>
    </dc:creator>
   </cc:Work>
  </rdf:RDF>
 </metadata>
 <defs>
  <style type="text/css">*{stroke-linecap:butt;stroke-linejoin:round;}</style>
 </defs>
 <g id="figure_1">
  <g id="patch_1">
   <path d="M 0 254.222163 
L 299.009375 254.222163 
L 299.009375 0 
L 0 0 
z
" style="fill:#ffffff;"/>
  </g>
  <g id="axes_1">
   <g id="patch_2">
    <path d="M 40.709375 208.923413 
L 291.809375 208.923413 
L 291.809375 20.837813 
L 40.709375 20.837813 
z
" style="fill:#ffffff;"/>
   </g>
   <g id="matplotlib.axis_1">
    <g id="xtick_1">
     <g id="line2d_1">
      <defs>
       <path d="M 0 0 
L 0 3.5 
" id="m96bfc82d43" style="stroke:#000000;stroke-width:0.8;"/>
      </defs>
      <g>
       <use style="stroke:#000000;stroke-width:0.8;" x="52.123011" xlink:href="#m96bfc82d43" y="208.923413"/>
      </g>
     </g>
     <g id="text_1">
      <!-- $\mathdefault{0}$ -->
      <g transform="translate(47.643011 226.561225)">
       <text>
        <tspan style="font-family:DejaVu Sans;font-size:14px;font-style:book;font-weight:book;" x="0" y="-0.609375">0</tspan>
       </text>
      </g>
     </g>
    </g>
    <g id="xtick_2">
     <g id="line2d_2">
      <g>
       <use style="stroke:#000000;stroke-width:0.8;" x="109.913575" xlink:href="#m96bfc82d43" y="208.923413"/>
      </g>
     </g>
     <g id="text_2">
      <!-- $\mathdefault{2}$ -->
      <g transform="translate(105.433575 226.561225)">
       <text>
        <tspan style="font-family:DejaVu Sans;font-size:14px;font-style:book;font-weight:book;" x="0" y="-0.609375">2</tspan>
       </text>
      </g>
     </g>
    </g>
    <g id="xtick_3">
     <g id="line2d_3">
      <g>
       <use style="stroke:#000000;stroke-width:0.8;" x="167.704139" xlink:href="#m96bfc82d43" y="208.923413"/>
      </g>
     </g>
     <g id="text_3">
      <!-- $\mathdefault{4}$ -->
      <g transform="translate(163.224139 226.561225)">
       <text>
        <tspan style="font-family:DejaVu Sans;font-size:14px;font-style:book;font-weight:book;" x="0" y="-0.796875">4</tspan>
       </text>
      </g>
     </g>
    </g>
    <g id="xtick_4">
     <g id="line2d_4">
      <g>
       <use style="stroke:#000000;stroke-width:0.8;" x="225.494703" xlink:href="#m96bfc82d43" y="208.923413"/>
      </g>
     </g>
     <g id="text_4">
      <!-- $\mathdefault{6}$ -->
      <g transform="translate(221.014703 226.561225)">
       <text>
        <tspan style="font-family:DejaVu Sans;font-size:14px;font-style:book;font-weight:book;" x="0" y="-0.609375">6</tspan>
       </text>
      </g>
     </g>
    </g>
    <g id="xtick_5">
     <g id="line2d_5">
      <g>
       <use style="stroke:#000000;stroke-width:0.8;" x="283.285267" xlink:href="#m96bfc82d43" y="208.923413"/>
      </g>
     </g>
     <g id="text_5">
      <!-- $\mathdefault{8}$ -->
      <g transform="translate(278.805267 226.561225)">
       <text>
        <tspan style="font-family:DejaVu Sans;font-size:14px;font-style:book;font-weight:book;" x="0" y="-0.609375">8</tspan>
       </text>
      </g>
     </g>
    </g>
    <g id="text_6">
     <text style="font-family:DejaVu Sans;font-size:14px;font-stretch:normal;font-style:normal;font-weight:normal;text-anchor:middle;" transform="rotate(-0, 166.259375, 244.1106)" x="166.259375" y="244.1106">Speed</text>
    </g>
    <g id="text_7">
     <!-- $\times\mathdefault{10^{2}}\mathdefault{}$ -->
     <g transform="translate(255.409375 243.1106)">
      <text>
       <tspan style="font-family:DejaVu Sans;font-size:14px;font-style:book;font-weight:book;" x="0 11.730469 20.637695" y="-0.3671875">×10</tspan>
       <tspan style="font-family:DejaVu Sans;font-size:9.8px;font-style:book;font-weight:book;" x="29.678906" y="-5.7265625">2</tspan>
      </text>
     </g>
    </g>
   </g>
   <g id="matplotlib.axis_2">
    <g id="ytick_1">
     <g id="line2d_6">
      <defs>
       <path d="M 0 0 
L -3.5 0 
" id="m91e62211c7" style="stroke:#000000;stroke-width:0.8;"/>
      </defs>
      <g>
       <use style="stroke:#000000;stroke-width:0.8;" x="40.709375" xlink:href="#m91e62211c7" y="200.374067"/>
      </g>
     </g>
     <g id="text_8">
      <!-- $\mathdefault{0}$ -->
      <g transform="translate(24.749375 205.692973)">
       <text>
        <tspan style="font-family:DejaVu Sans;font-size:14px;font-style:book;font-weight:book;" x="0" y="-0.609375">0</tspan>
       </text>
      </g>
     </g>
    </g>
    <g id="ytick_2">
     <g id="line2d_7">
      <g>
       <use style="stroke:#000000;stroke-width:0.8;" x="40.709375" xlink:href="#m91e62211c7" y="142.764555"/>
      </g>
     </g>
     <g id="text_9">
      <!-- $\mathdefault{2}$ -->
      <g transform="translate(24.749375 148.083461)">
       <text>
        <tspan style="font-family:DejaVu Sans;font-size:14px;font-style:book;font-weight:book;" x="0" y="-0.609375">2</tspan>
       </text>
      </g>
     </g>
    </g>
    <g id="ytick_3">
     <g id="line2d_8">
      <g>
       <use style="stroke:#000000;stroke-width:0.8;" x="40.709375" xlink:href="#m91e62211c7" y="85.155042"/>
      </g>
     </g>
     <g id="text_10">
      <!-- $\mathdefault{4}$ -->
      <g transform="translate(24.749375 90.473949)">
       <text>
        <tspan style="font-family:DejaVu Sans;font-size:14px;font-style:book;font-weight:book;" x="0" y="-0.796875">4</tspan>
       </text>
      </g>
     </g>
    </g>
    <g id="ytick_4">
     <g id="line2d_9">
      <g>
       <use style="stroke:#000000;stroke-width:0.8;" x="40.709375" xlink:href="#m91e62211c7" y="27.54553"/>
      </g>
     </g>
     <g id="text_11">
      <!-- $\mathdefault{6}$ -->
      <g transform="translate(24.749375 32.864436)">
       <text>
        <tspan style="font-family:DejaVu Sans;font-size:14px;font-style:book;font-weight:book;" x="0" y="-0.609375">6</tspan>
       </text>
      </g>
     </g>
    </g>
    <g id="text_12">
     <text style="font-family:DejaVu Sans;font-size:14px;font-stretch:normal;font-style:normal;font-weight:normal;text-anchor:middle;" transform="rotate(-90, 17.837813, 114.880613)" x="17.837813" y="114.880613">Speed distribution</text>
    </g>
    <g id="text_13">
     <!-- $\times\mathdefault{10^{−3}}\mathdefault{}$ -->
     <g transform="translate(40.709375 17.837813)">
      <text>
       <tspan style="font-family:DejaVu Sans;font-size:14px;font-style:book;font-weight:book;" x="0 11.730469 20.637695" y="-0.3671875">×10</tspan>
       <tspan style="font-family:DejaVu Sans;font-size:9.8px;font-style:book;font-weight:book;" x="29.678906 37.890234" y="-5.7265625">−3</tspan>
      </text>
     </g>
    </g>
   </g>
   <g id="line2d_10">
    <path clip-path="url(#p1c8d3996c4)" d="M 52.123011 200.374067 
L 55.01254 198.010021 
L 57.902068 191.061806 
L 60.791596 179.950274 
L 63.681124 165.341488 
L 66.570652 148.097162 
L 69.460181 129.21183 
L 72.349709 109.742415 
L 75.239237 90.736343 
L 78.128765 73.164207 
L 81.018293 57.86222 
L 83.907821 45.488464 
L 86.79735 36.495416 
L 89.686878 31.119539 
L 92.576406 29.387158 
L 95.465934 31.134461 
L 98.355462 36.038471 
L 101.244991 43.655227 
L 104.134519 53.461292 
L 107.024047 64.894926 
L 109.913575 77.393808 
L 112.803103 90.426994 
L 115.692632 103.519609 
L 118.58216 116.269691 
L 121.471688 128.357309 
L 124.361216 139.546736 
L 127.250744 149.682865 
L 130.140273 158.683282 
L 133.029801 166.52749 
L 135.919329 173.244658 
L 138.808857 178.901103 
L 141.698385 183.588443 
L 144.587914 187.413076 
L 147.477442 190.487403 
L 150.36697 192.922925 
L 153.256498 194.825208 
L 156.146026 196.290547 
L 159.035555 197.404078 
L 161.925083 198.239058 
L 164.814611 198.857009 
L 167.704139 199.30847 
L 170.593667 199.63412 
L 173.483195 199.866083 
L 176.372724 200.029267 
L 179.262252 200.142661 
L 182.15178 200.220502 
L 185.041308 200.273295 
L 187.930836 200.308673 
L 190.820365 200.332101 
L 193.709893 200.347433 
L 196.599421 200.357349 
L 199.488949 200.363688 
L 202.378477 200.367694 
L 205.268006 200.370197 
L 208.157534 200.371742 
L 211.047062 200.372686 
L 213.93659 200.373255 
L 216.826118 200.373595 
L 219.715647 200.373796 
L 222.605175 200.373913 
L 225.494703 200.37398 
L 228.384231 200.374019 
L 231.273759 200.37404 
L 234.163288 200.374053 
L 237.052816 200.374059 
L 239.942344 200.374063 
L 242.831872 200.374065 
L 245.7214 200.374066 
L 248.610929 200.374066 
L 251.500457 200.374067 
L 254.389985 200.374067 
L 257.279513 200.374067 
L 260.169041 200.374067 
L 263.058569 200.374067 
L 265.948098 200.374067 
L 268.837626 200.374067 
L 271.727154 200.374067 
L 274.616682 200.374067 
L 277.50621 200.374067 
L 280.395739 200.374067 
" style="fill:none;stroke:#001219;stroke-linecap:square;stroke-width:1.5;"/>
   </g>
   <g id="line2d_11">
    <path clip-path="url(#p1c8d3996c4)" d="M 52.123011 200.374067 
L 55.01254 199.350655 
L 57.902068 196.31614 
L 60.791596 191.376126 
L 63.681124 184.701519 
L 66.570652 176.521166 
L 69.460181 167.112108 
L 72.349709 156.787957 
L 75.239237 145.886016 
L 78.128765 134.753775 
L 81.018293 123.73547 
L 83.907821 113.159326 
L 86.79735 103.326073 
L 89.686878 94.499196 
L 92.576406 86.897302 
L 95.465934 80.688813 
L 98.355462 75.989094 
L 101.244991 72.859973 
L 104.134519 71.311494 
L 107.024047 71.305632 
L 109.913575 72.76165 
L 112.803103 75.562682 
L 115.692632 79.563141 
L 118.58216 84.596523 
L 121.471688 90.483219 
L 124.361216 97.037982 
L 127.250744 104.076747 
L 130.140273 111.422599 
L 133.029801 118.910709 
L 135.919329 126.392169 
L 138.808857 133.736708 
L 141.698385 140.834315 
L 144.587914 147.595874 
L 147.477442 153.952912 
L 150.36697 159.856629 
L 153.256498 165.27635 
L 156.146026 170.197558 
L 159.035555 174.61968 
L 161.925083 178.553737 
L 164.814611 182.020003 
L 167.704139 185.045749 
L 170.593667 187.663167 
L 173.483195 189.907511 
L 176.372724 191.815495 
L 179.262252 193.42396 
L 182.15178 194.76881 
L 185.041308 195.884204 
L 187.930836 196.801975 
L 190.820365 197.551259 
L 193.709893 198.158292 
L 196.599421 198.646358 
L 199.488949 199.035837 
L 202.378477 199.344346 
L 205.268006 199.586932 
L 208.157534 199.776299 
L 211.047062 199.923063 
L 213.93659 200.035999 
L 216.826118 200.122292 
L 219.715647 200.187765 
L 222.605175 200.237097 
L 225.494703 200.27401 
L 228.384231 200.301442 
L 231.273759 200.321688 
L 234.163288 200.336529 
L 237.052816 200.347336 
L 239.942344 200.355151 
L 242.831872 200.360766 
L 245.7214 200.364773 
L 248.610929 200.367614 
L 251.500457 200.369614 
L 254.389985 200.371013 
L 257.279513 200.371986 
L 260.169041 200.372658 
L 263.058569 200.373119 
L 265.948098 200.373433 
L 268.837626 200.373645 
L 271.727154 200.373789 
L 274.616682 200.373884 
L 277.50621 200.373948 
L 280.395739 200.37399 
" style="fill:none;stroke:#005f73;stroke-dasharray:5.55,2.4;stroke-dashoffset:0;stroke-width:1.5;"/>
   </g>
   <g id="line2d_12">
    <path clip-path="url(#p1c8d3996c4)" d="M 52.123011 200.374067 
L 55.01254 199.774168 
L 57.902068 197.989148 
L 60.791596 195.062585 
L 63.681124 191.065635 
L 66.570652 186.094875 
L 69.460181 180.269394 
L 72.349709 173.727253 
L 75.239237 166.621433 
L 78.128765 159.115418 
L 81.018293 151.378581 
L 83.907821 143.581523 
L 86.79735 135.891528 
L 89.686878 128.468284 
L 92.576406 121.459993 
L 95.465934 114.999996 
L 98.355462 109.203991 
L 101.244991 104.167909 
L 104.134519 99.966484 
L 107.024047 96.652523 
L 109.913575 94.256854 
L 112.803103 92.788924 
L 115.692632 92.237957 
L 118.58216 92.574623 
L 121.471688 93.753105 
L 124.361216 95.713473 
L 127.250744 98.384268 
L 130.140273 101.685185 
L 133.029801 105.52977 
L 135.919329 109.828037 
L 138.808857 114.488936 
L 141.698385 119.422602 
L 144.587914 124.542342 
L 147.477442 129.766327 
L 150.36697 135.018962 
L 153.256498 140.231935 
L 156.146026 145.344946 
L 159.035555 150.306133 
L 161.925083 155.072225 
L 164.814611 159.60844 
L 167.704139 163.888178 
L 170.593667 167.892535 
L 173.483195 171.609688 
L 176.372724 175.034174 
L 179.262252 178.166118 
L 182.15178 181.01042 
L 185.041308 183.575949 
L 187.930836 185.874758 
L 190.820365 187.921339 
L 193.709893 189.731941 
L 196.599421 191.323948 
L 199.488949 192.715342 
L 202.378477 193.924235 
L 205.268006 194.96848 
L 208.157534 195.865361 
L 211.047062 196.631352 
L 213.93659 197.281933 
L 216.826118 197.831476 
L 219.715647 198.293167 
L 222.605175 198.678982 
L 225.494703 198.99969 
L 228.384231 199.264885 
L 231.273759 199.483041 
L 234.163288 199.661583 
L 237.052816 199.806959 
L 239.942344 199.924735 
L 242.831872 200.019672 
L 245.7214 200.095819 
L 248.610929 200.156594 
L 251.500457 200.204861 
L 254.389985 200.243008 
L 257.279513 200.27301 
L 260.169041 200.296493 
L 263.058569 200.314785 
L 265.948098 200.328966 
L 268.837626 200.339907 
L 271.727154 200.348308 
L 274.616682 200.35473 
L 277.50621 200.359614 
L 280.395739 200.363313 
" style="fill:none;stroke:#0a9396;stroke-dasharray:9.6,2.4,1.5,2.4;stroke-dashoffset:0;stroke-width:1.5;"/>
   </g>
   <g id="line2d_13">
    <path clip-path="url(#p1c8d3996c4)" d="M 52.123011 200.374067 
L 55.01254 199.969148 
L 57.902068 198.762017 
L 60.791596 196.77537 
L 63.681124 194.046444 
L 66.570652 190.62614 
L 69.460181 186.577849 
L 72.349709 181.975982 
L 75.239237 176.904277 
L 78.128765 171.453911 
L 81.018293 165.721479 
L 83.907821 159.806889 
L 86.79735 153.811237 
L 89.686878 147.834714 
L 92.576406 141.974595 
L 95.465934 136.323366 
L 98.355462 130.967023 
L 101.244991 125.983592 
L 104.134519 121.441888 
L 107.024047 117.400536 
L 109.913575 113.907277 
L 112.803103 110.998542 
L 115.692632 108.699317 
L 118.58216 107.023255 
L 121.471688 105.973055 
L 124.361216 105.541039 
L 127.250744 105.709943 
L 130.140273 106.453854 
L 133.029801 107.739279 
L 135.919329 109.526303 
L 138.808857 111.769798 
L 141.698385 114.420658 
L 144.587914 117.427017 
L 147.477442 120.735428 
L 150.36697 124.291976 
L 153.256498 128.043305 
L 156.146026 131.937536 
L 159.035555 135.92507 
L 161.925083 139.959269 
L 164.814611 143.997003 
L 167.704139 147.999068 
L 170.593667 151.930485 
L 173.483195 155.760669 
L 176.372724 159.4635 
L 179.262252 163.01728 
L 182.15178 166.404623 
L 185.041308 169.612247 
L 187.930836 172.630729 
L 190.820365 175.454195 
L 193.709893 178.079989 
L 196.599421 180.508312 
L 199.488949 182.741854 
L 202.378477 184.785426 
L 205.268006 186.645599 
L 208.157534 188.330355 
L 211.047062 189.84877 
L 213.93659 191.210704 
L 216.826118 192.426538 
L 219.715647 193.506931 
L 222.605175 194.462609 
L 225.494703 195.304187 
L 228.384231 196.04202 
L 231.273759 196.686084 
L 234.163288 197.245883 
L 237.052816 197.730377 
L 239.942344 198.147938 
L 242.831872 198.506319 
L 245.7214 198.812644 
L 248.610929 199.07341 
L 251.500457 199.294496 
L 254.389985 199.481192 
L 257.279513 199.638222 
L 260.169041 199.76978 
L 263.058569 199.879566 
L 265.948098 199.97083 
L 268.837626 200.046402 
L 271.727154 200.108742 
L 274.616682 200.15997 
L 277.50621 200.201908 
L 280.395739 200.236112 
" style="fill:none;stroke:#94d2bd;stroke-dasharray:1.5,2.475;stroke-dashoffset:0;stroke-width:1.5;"/>
   </g>
   <g id="line2d_14">
    <path clip-path="url(#p1c8d3996c4)" d="M 52.123011 200.374067 
L 55.01254 200.077426 
L 57.902068 199.192044 
L 60.791596 197.731457 
L 63.681124 195.717937 
L 66.570652 193.182068 
L 69.460181 190.162171 
L 72.349709 186.703574 
L 75.239237 182.857778 
L 78.128765 178.681493 
L 81.018293 174.235615 
L 83.907821 169.584122 
L 86.79735 164.792949 
L 89.686878 159.928844 
L 92.576406 155.058241 
L 95.465934 150.246166 
L 98.355462 145.555205 
L 101.244991 141.04455 
L 104.134519 136.769137 
L 107.024047 132.778901 
L 109.913575 129.118143 
L 112.803103 125.825038 
L 115.692632 122.931266 
L 118.58216 120.461785 
L 121.471688 118.434742 
L 124.361216 116.8615 
L 127.250744 115.746803 
L 130.140273 115.089039 
L 133.029801 114.880613 
L 135.919329 115.108397 
L 138.808857 115.754264 
L 141.698385 116.795668 
L 144.587914 118.206269 
L 147.477442 119.956584 
L 150.36697 122.014647 
L 153.256498 124.34667 
L 156.146026 126.91768 
L 159.035555 129.692134 
L 161.925083 132.634496 
L 164.814611 135.709762 
L 167.704139 138.883938 
L 170.593667 142.124455 
L 173.483195 145.40053 
L 176.372724 148.683457 
L 179.262252 151.946838 
L 182.15178 155.166754 
L 185.041308 158.321879 
L 187.930836 161.393532 
L 190.820365 164.365688 
L 193.709893 167.224936 
L 196.599421 169.960402 
L 199.488949 172.563634 
L 202.378477 175.028466 
L 205.268006 177.350848 
L 208.157534 179.528674 
L 211.047062 181.561586 
L 213.93659 183.450778 
L 216.826118 185.198801 
L 219.715647 186.809362 
L 222.605175 188.287137 
L 225.494703 189.637585 
L 228.384231 190.866781 
L 231.273759 191.981255 
L 234.163288 192.987845 
L 237.052816 193.893572 
L 239.942344 194.705519 
L 242.831872 195.430735 
L 245.7214 196.076149 
L 248.610929 196.648496 
L 251.500457 197.154262 
L 254.389985 197.599637 
L 257.279513 197.990483 
L 260.169041 198.332307 
L 263.058569 198.630248 
L 265.948098 198.889073 
L 268.837626 199.11317 
L 271.727154 199.306563 
L 274.616682 199.472912 
L 277.50621 199.615538 
L 280.395739 199.737429 
" style="fill:none;stroke:#e9d8a6;stroke-linecap:square;stroke-width:1.5;"/>
   </g>
   <g id="line2d_15">
    <path clip-path="url(#p1c8d3996c4)" d="M 52.123011 200.374067 
L 55.01254 200.144786 
L 57.902068 199.459899 
L 60.791596 198.328228 
L 63.681124 196.764318 
L 66.570652 194.788205 
L 69.460181 192.425093 
L 72.349709 189.704958 
L 75.239237 186.662069 
L 78.128765 183.334458 
L 81.018293 179.763326 
L 83.907821 175.992416 
L 86.79735 172.067347 
L 89.686878 168.034945 
L 92.576406 163.942554 
L 95.465934 159.837363 
L 98.355462 155.765752 
L 101.244991 151.772666 
L 104.134519 147.90103 
L 107.024047 144.191212 
L 109.913575 140.680552 
L 112.803103 137.402939 
L 115.692632 134.388474 
L 118.58216 131.663194 
L 121.471688 129.248872 
L 124.361216 127.162896 
L 127.250744 125.418216 
L 130.140273 124.023365 
L 133.029801 122.982544 
L 135.919329 122.295776 
L 138.808857 121.959103 
L 141.698385 121.964849 
L 144.587914 122.301917 
L 147.477442 122.956117 
L 150.36697 123.91053 
L 153.256498 125.145886 
L 156.146026 126.640957 
L 159.035555 128.37295 
L 161.925083 130.317901 
L 164.814611 132.451055 
L 167.704139 134.747239 
L 170.593667 137.181208 
L 173.483195 139.727965 
L 176.372724 142.363061 
L 179.262252 145.062855 
L 182.15178 147.804749 
L 185.041308 150.567383 
L 187.930836 153.330799 
L 190.820365 156.076568 
L 193.709893 158.787889 
L 196.599421 161.449648 
L 199.488949 164.048457 
L 202.378477 166.572655 
L 205.268006 169.012292 
L 208.157534 171.359084 
L 211.047062 173.606355 
L 213.93659 175.748959 
L 216.826118 177.783185 
L 219.715647 179.70666 
L 222.605175 181.518234 
L 225.494703 183.217869 
L 228.384231 184.806519 
L 231.273759 186.28601 
L 234.163288 187.658928 
L 237.052816 188.928496 
L 239.942344 190.098475 
L 242.831872 191.173051 
L 245.7214 192.156742 
L 248.610929 193.054308 
L 251.500457 193.870668 
L 254.389985 194.610827 
L 257.279513 195.279809 
L 260.169041 195.882603 
L 263.058569 196.424108 
L 265.948098 196.909098 
L 268.837626 197.342183 
L 271.727154 197.727782 
L 274.616682 198.070104 
L 277.50621 198.373133 
L 280.395739 198.640612 
" style="fill:none;stroke:#ee9b00;stroke-dasharray:5.55,2.4;stroke-dashoffset:0;stroke-width:1.5;"/>
   </g>
   <g id="patch_3">
    <path d="M 40.709375 208.923413 
L 40.709375 20.837813 
" style="fill:none;stroke:#000000;stroke-linecap:square;stroke-linejoin:miter;stroke-width:0.8;"/>
   </g>
   <g id="patch_4">
    <path d="M 291.809375 208.923413 
L 291.809375 20.837813 
" style="fill:none;stroke:#000000;stroke-linecap:square;stroke-linejoin:miter;stroke-width:0.8;"/>
   </g>
   <g id="patch_5">
    <path d="M 40.709375 208.923413 
L 291.809375 208.923413 
" style="fill:none;stroke:#000000;stroke-linecap:square;stroke-linejoin:miter;stroke-width:0.8;"/>
   </g>
   <g id="patch_6">
    <path d="M 40.709375 20.837813 
L 291.809375 20.837813 
" style="fill:none;stroke:#000000;stroke-linecap:square;stroke-linejoin:miter;stroke-width:0.8;"/>
   </g>
   <g id="legend_1">
    <g id="line2d_16">
     <path d="M 183.823438 39.175625 
L 211.823438 39.175625 
" style="fill:none;stroke:#001219;stroke-linecap:square;stroke-width:1.5;"/>
    </g>
    <g id="line2d_17"/>
    <g id="text_14">
     <text style="font-family:DejaVu Sans;font-size:14px;font-stretch:normal;font-style:normal;font-weight:normal;text-anchor:start;" transform="rotate(-0, 223.023438, 44.075625)" x="223.023438" y="44.075625">T=100K</text>
    </g>
    <g id="line2d_18">
     <path d="M 183.823438 59.725 
L 211.823438 59.725 
" style="fill:none;stroke:#005f73;stroke-dasharray:5.55,2.4;stroke-dashoffset:0;stroke-width:1.5;"/>
    </g>
    <g id="line2d_19"/>
    <g id="text_15">
     <text style="font-family:DejaVu Sans;font-size:14px;font-stretch:normal;font-style:normal;font-weight:normal;text-anchor:start;" transform="rotate(-0, 223.023438, 64.625)" x="223.023438" y="64.625">T=175K</text>
    </g>
    <g id="line2d_20">
     <path d="M 183.823438 80.274375 
L 211.823438 80.274375 
" style="fill:none;stroke:#0a9396;stroke-dasharray:9.6,2.4,1.5,2.4;stroke-dashoffset:0;stroke-width:1.5;"/>
    </g>
    <g id="line2d_21"/>
    <g id="text_16">
     <text style="font-family:DejaVu Sans;font-size:14px;font-stretch:normal;font-style:normal;font-weight:normal;text-anchor:start;" transform="rotate(-0, 223.023438, 85.174375)" x="223.023438" y="85.174375">T=250K</text>
    </g>
    <g id="line2d_22">
     <path d="M 183.823438 100.82375 
L 211.823438 100.82375 
" style="fill:none;stroke:#94d2bd;stroke-dasharray:1.5,2.475;stroke-dashoffset:0;stroke-width:1.5;"/>
    </g>
    <g id="line2d_23"/>
    <g id="text_17">
     <text style="font-family:DejaVu Sans;font-size:14px;font-stretch:normal;font-style:normal;font-weight:normal;text-anchor:start;" transform="rotate(-0, 223.023438, 105.72375)" x="223.023438" y="105.72375">T=325K</text>
    </g>
    <g id="line2d_24">
     <path d="M 183.823438 121.373125 
L 211.823438 121.373125 
" style="fill:none;stroke:#e9d8a6;stroke-linecap:square;stroke-width:1.5;"/>
    </g>
    <g id="line2d_25"/>
    <g id="text_18">
     <text style="font-family:DejaVu Sans;font-size:14px;font-stretch:normal;font-style:normal;font-weight:normal;text-anchor:start;" transform="rotate(-0, 223.023438, 126.273125)" x="223.023438" y="126.273125">T=400K</text>
    </g>
    <g id="line2d_26">
     <path d="M 183.823438 141.9225 
L 211.823438 141.9225 
" style="fill:none;stroke:#ee9b00;stroke-dasharray:5.55,2.4;stroke-dashoffset:0;stroke-width:1.5;"/>
    </g>
    <g id="line2d_27"/>
    <g id="text_19">
     <text style="font-family:DejaVu Sans;font-size:14px;font-stretch:normal;font-style:normal;font-weight:normal;text-anchor:start;" transform="rotate(-0, 223.023438, 146.8225)" x="223.023438" y="146.8225">T=475K</text>
    </g>
   </g>
  </g>
 </g>
 <defs>
  <clipPath id="p1c8d3996c4">
   <rect height="188.0856" width="251.1" x="40.709375" y="20.837813"/>
  </clipPath>
 </defs>
</svg>
